{"glyphs":{"0":{"ha":680,"x_min":31,"x_max":648,"o":"m 134 439 q 88 239 88 370 q 136 56 88 114 q 31 245 31 121 q 134 439 31 378 m 545 58 q 591 252 591 125 q 545 442 591 367 q 648 252 648 370 q 545 58 648 127 m 189 231 q 233 76 189 123 q 339 28 277 28 q 446 77 402 28 q 489 248 489 125 q 338 469 489 469 q 189 231 189 469 m 132 250 q 189 441 132 367 q 341 514 245 514 q 485 451 425 514 q 545 248 545 389 q 488 51 545 115 q 340 -14 431 -14 q 220 22 269 -14 q 153 113 172 58 q 132 250 132 168 z "},"1":{"ha":376,"x_min":31,"x_max":353,"o":"m 171 507 l 171 0 q 80 -5 123 -1 q 61 -7 71 -6 q 44 -8 52 -7 q 31 -8 37 -8 l 31 4 q 85 32 64 10 q 113 76 106 52 q 120 161 120 96 l 120 350 q 115 429 120 412 q 91 457 111 446 q 31 469 71 468 l 31 481 q 171 507 117 490 m 217 0 l 217 521 q 267 543 256 536 l 267 132 q 353 4 267 20 l 353 -8 q 253 -1 290 -3 q 217 0 216 0 z "},"2":{"ha":550,"x_min":30,"x_max":531,"o":"m 79 45 l 476 45 l 458 0 l 189 0 q 33 -8 128 0 l 79 45 m 516 185 l 531 185 l 494 91 l 119 91 l 197 180 q 269 265 242 232 q 307 317 295 298 q 332 401 332 357 q 290 490 332 456 q 194 523 248 523 q 106 488 140 523 q 71 395 71 454 q 78 342 71 369 l 54 334 q 30 412 30 372 q 83 528 30 481 q 205 574 135 574 q 336 522 282 574 q 390 404 390 469 q 263 188 390 313 q 257 181 260 184 q 250 175 254 178 l 212 134 l 357 134 q 462 145 429 134 q 516 185 493 156 m 116 601 q 253 659 167 659 q 394 603 336 659 q 452 470 452 547 q 431 398 452 432 q 365 558 431 497 q 205 618 298 618 q 116 601 161 618 z "},"3":{"ha":578,"x_min":19,"x_max":547,"o":"m 421 -239 q 473 -159 452 -216 q 494 -55 494 -103 q 430 126 494 44 q 547 -59 547 62 q 509 -179 547 -132 q 421 -239 471 -225 m 62 273 l 50 273 q 55 313 50 295 q 74 388 63 340 l 460 388 l 273 168 q 445 -55 445 125 q 374 -225 445 -162 q 213 -289 304 -289 q 90 -248 146 -289 q 19 -123 35 -208 l 39 -123 q 111 -214 61 -184 q 212 -243 160 -243 q 337 -197 286 -243 q 389 -58 389 -150 q 338 85 389 34 q 217 136 287 136 q 183 134 203 136 l 362 345 l 195 345 q 108 331 136 345 q 62 273 80 317 m 87 477 l 536 477 l 497 432 l 81 432 l 87 477 z "},"4":{"ha":694,"x_min":7,"x_max":682,"o":"m 120 56 l 394 56 l 394 332 l 120 56 m 394 -116 l 394 0 l 7 0 l 7 8 l 444 448 l 444 -108 q 437 -222 444 -189 q 401 -281 429 -254 q 302 -340 373 -309 l 294 -322 q 394 -116 394 -286 m 490 -81 l 490 493 l 540 543 l 540 56 l 568 56 q 621 62 605 56 q 670 101 637 70 l 682 90 q 603 0 651 42 l 540 0 l 540 -88 q 527 -164 540 -138 q 476 -227 513 -191 q 490 -81 490 -184 z "},"5":{"ha":578,"x_min":22,"x_max":565,"o":"m 416 -235 q 479 -47 479 -174 q 412 157 479 77 q 538 -40 538 92 q 416 -235 538 -172 m 100 388 l 468 388 l 425 343 l 148 343 l 140 180 q 227 197 179 197 q 372 132 311 197 q 433 -39 433 67 q 376 -221 433 -151 q 219 -292 318 -292 q 90 -248 142 -292 q 22 -133 37 -204 l 39 -128 q 212 -245 100 -245 q 333 -190 290 -245 q 377 -43 377 -134 q 332 102 377 50 q 219 155 286 155 q 95 96 151 155 l 85 96 l 100 388 m 511 433 l 102 433 l 104 477 l 445 477 q 511 483 490 477 q 546 508 528 488 l 565 508 q 527 452 546 475 l 511 433 z "},"6":{"ha":637,"x_min":32,"x_max":610,"o":"m 503 47 q 553 235 553 117 q 514 414 553 332 q 610 231 610 352 q 503 47 610 106 m 144 563 q 87 286 87 444 q 127 76 87 155 q 32 311 32 174 q 144 563 32 471 m 194 385 q 187 290 187 345 q 328 26 187 26 q 414 77 377 26 q 451 238 451 127 q 415 380 451 330 q 311 431 379 431 q 194 385 250 431 m 492 754 l 492 732 q 300 627 378 713 q 207 445 224 542 q 321 481 267 481 q 452 418 399 481 q 505 237 505 355 q 450 47 505 109 q 321 -15 395 -15 q 184 61 235 -15 q 132 283 132 136 q 168 498 132 384 q 287 680 204 610 q 492 754 369 750 z "},"7":{"ha":564,"x_min":17,"x_max":548,"o":"m 17 243 l 52 388 l 431 388 l 316 -88 q 246 -251 286 -208 q 101 -327 205 -296 l 95 -304 q 209 -227 178 -269 q 265 -81 239 -187 l 368 342 l 176 342 q 77 315 106 342 q 37 243 48 288 l 17 243 m 357 -104 l 498 477 l 548 477 l 408 -102 q 375 -189 393 -164 q 298 -252 357 -215 q 357 -104 334 -195 m 441 432 l 63 432 l 74 477 l 452 477 l 441 432 z "},"8":{"ha":564,"x_min":41,"x_max":527,"o":"m 207 353 q 113 185 113 288 q 155 66 113 106 q 257 26 197 26 q 357 68 318 26 q 397 172 397 110 q 376 252 397 220 q 307 307 355 284 q 207 353 277 321 m 166 372 q 41 543 41 438 q 116 671 41 622 q 85 571 85 629 q 117 472 85 518 q 273 376 148 427 q 377 328 349 346 q 429 269 408 307 q 451 178 451 229 q 394 40 451 93 q 256 -13 336 -13 q 107 46 172 -13 q 42 188 42 105 q 166 372 42 292 m 323 454 q 400 579 400 503 q 370 670 400 634 q 289 706 340 706 q 207 670 237 706 q 176 584 176 635 q 201 519 176 547 q 323 454 227 491 m 361 439 q 527 237 527 366 q 484 117 527 171 q 494 185 494 149 q 457 313 494 261 q 303 411 419 366 q 153 501 178 460 q 127 583 127 543 q 174 694 127 645 q 292 743 221 743 q 411 699 357 743 q 465 587 465 656 q 361 439 465 498 z "},"9":{"ha":637,"x_min":32,"x_max":602,"o":"m 137 435 q 87 236 87 351 q 137 49 87 133 q 32 238 32 115 q 52 340 32 288 q 137 435 73 391 m 481 -124 q 545 175 545 3 q 471 454 545 339 q 602 170 602 364 q 481 -124 602 -18 m 438 88 q 444 191 444 163 q 410 382 444 311 q 311 452 376 452 q 224 396 256 452 q 192 231 192 340 q 228 90 192 134 q 318 45 264 45 q 438 88 376 45 m 196 -305 l 190 -282 q 428 43 397 -189 q 311 3 358 3 q 181 62 228 3 q 134 235 134 120 q 182 426 134 358 q 313 493 230 493 q 453 401 406 493 q 499 168 499 309 q 418 -143 499 -16 q 196 -305 337 -271 z "}," ":{"ha":340,"x_min":0,"x_max":0,"o":""},"!":{"ha":290,"x_min":14,"x_max":275,"o":"m 145 -18 l 45 82 l 79 116 l 178 16 l 145 -18 m 210 47 l 111 147 l 144 181 l 244 81 l 210 47 m 121 715 l 121 256 l 96 256 l 66 566 q 49 668 58 640 q 14 711 39 698 l 14 723 q 121 715 34 720 m 220 536 l 193 256 l 167 256 l 167 715 q 275 723 249 720 l 275 711 q 242 673 254 700 q 220 536 230 646 z "},"\"":{"ha":492,"x_min":64,"x_max":428,"o":"m 395 389 l 322 389 l 289 578 l 289 741 l 428 741 l 428 578 l 395 389 m 172 389 l 98 389 l 64 578 l 64 741 l 203 741 l 203 578 l 172 389 z "},"#":{"ha":926,"x_min":64,"x_max":862,"o":"m 647 584 l 337 584 l 279 310 l 589 310 l 647 584 m 64 584 l 64 644 l 291 644 l 351 926 l 410 926 l 350 644 l 659 644 l 718 926 l 777 926 l 718 644 l 862 644 l 862 584 l 706 584 l 648 309 l 862 309 l 862 249 l 636 249 l 578 -32 l 518 -32 l 577 249 l 267 249 l 210 -32 l 149 -32 l 208 249 l 64 249 l 64 309 l 220 309 l 278 584 l 64 584 z "},"$":{"ha":564,"x_min":32,"x_max":538,"o":"m 313 306 l 313 39 q 418 175 418 78 q 313 306 418 264 m 313 -6 l 313 -124 l 265 -124 l 265 -12 q 158 2 220 -10 q 65 16 88 16 q 56 15 59 16 q 50 14 54 14 q 43 27 43 14 q 42 106 43 56 q 41 175 41 176 q 42 217 41 199 l 55 217 q 117 89 63 145 q 265 31 172 32 l 265 324 q 32 545 32 408 q 104 673 32 618 q 75 572 75 625 q 125 454 75 500 q 301 363 175 408 q 391 323 358 343 q 445 263 421 304 q 468 176 468 223 q 430 65 468 115 q 313 -6 393 16 m 265 477 l 265 694 q 192 655 218 686 q 165 589 165 625 q 265 477 165 510 m 265 739 l 265 824 l 313 824 l 313 744 q 503 703 399 744 q 504 655 503 689 q 507 561 507 589 q 506 538 507 560 l 492 538 q 434 654 486 610 q 313 697 383 697 l 313 458 q 492 360 445 415 q 538 233 538 304 q 490 111 538 168 q 509 194 509 152 q 484 292 509 248 q 417 359 457 335 q 283 419 379 383 q 144 502 172 461 q 117 587 117 543 q 163 690 117 648 q 265 739 209 732 z "},"%":{"ha":1085,"x_min":26,"x_max":1059,"o":"m 664 9 q 586 70 614 24 q 557 163 557 116 q 589 262 557 218 q 665 328 618 304 q 610 168 610 265 q 664 9 610 63 m 945 0 q 1004 165 1004 62 q 948 335 1004 267 q 1059 174 1059 279 q 945 0 1059 70 m 710 161 q 806 26 710 26 q 876 62 848 26 q 903 166 903 97 q 806 307 903 307 q 710 161 710 307 m 657 161 q 702 304 657 257 q 810 352 745 352 q 911 307 868 352 q 955 164 955 262 q 912 28 955 77 q 805 -20 869 -20 q 697 31 737 -20 q 657 161 657 81 m 132 413 q 54 474 81 429 q 26 568 26 520 q 56 664 26 616 q 134 732 85 711 q 78 572 78 670 q 132 413 78 469 m 413 404 q 473 569 473 465 q 416 739 473 677 q 528 578 528 684 q 413 404 528 474 m 284 0 l 205 0 q 243 42 233 28 l 267 71 q 273 79 269 73 l 768 688 q 817 755 806 735 l 895 755 q 802 647 857 715 l 345 83 q 284 0 317 50 m 178 565 q 274 430 178 430 q 345 466 317 430 q 372 570 372 501 q 274 711 372 711 q 178 565 178 711 m 125 566 q 170 709 125 661 q 276 756 214 756 q 382 708 341 756 q 422 568 422 661 q 380 433 422 481 q 273 384 337 384 q 165 435 205 384 q 125 566 125 485 z "},"&":{"ha":911,"x_min":35,"x_max":900,"o":"m 115 320 q 96 212 96 265 q 133 77 96 138 q 225 -11 170 16 q 89 45 142 -5 q 35 170 35 97 q 115 320 35 254 m 279 361 q 204 222 204 302 q 254 100 204 158 q 385 43 304 43 q 515 103 448 43 q 451 169 489 129 q 377 249 413 209 q 315 319 340 289 q 279 361 283 357 m 555 67 q 371 -12 469 -12 q 208 62 271 -12 q 143 217 143 136 q 248 401 143 330 q 183 545 183 492 q 202 623 183 584 q 231 523 204 575 q 275 457 246 495 q 357 356 303 419 q 411 294 374 336 q 483 215 448 252 q 533 161 518 177 q 669 41 612 78 q 781 -8 728 3 q 738 -13 757 -13 q 637 8 677 -13 q 555 67 597 30 m 374 494 l 387 477 q 473 595 473 522 q 449 659 473 635 q 388 682 426 682 q 325 661 346 682 q 304 618 304 640 q 374 494 304 576 m 893 73 l 900 63 q 817 34 854 34 q 699 81 768 34 q 613 154 663 106 q 489 281 564 201 q 299 504 350 431 q 251 618 251 572 q 290 699 251 666 q 399 732 330 732 q 512 697 467 732 q 558 606 558 661 q 422 436 558 513 q 623 218 484 363 q 690 339 690 298 q 611 399 690 389 l 611 411 q 766 401 720 401 q 812 403 777 401 q 878 405 852 405 l 878 393 q 744 292 818 392 l 701 235 q 693 226 699 233 l 660 183 q 850 64 781 64 q 893 73 871 64 z "},"'":{"ha":260,"x_min":61,"x_max":200,"o":"m 168 389 l 92 389 l 61 574 l 61 741 l 200 741 l 200 574 l 168 389 z "},"(":{"ha":391,"x_min":40,"x_max":374,"o":"m 213 -319 l 208 -323 q 40 185 40 -142 q 91 488 40 355 q 208 686 142 621 l 213 682 q 133 476 170 614 q 94 187 94 337 q 213 -319 94 -86 m 374 -460 l 363 -466 q 203 -197 267 -368 q 155 -17 171 -110 q 139 174 139 77 q 363 829 139 576 l 374 821 q 255 559 315 741 q 193 185 193 376 q 258 -203 193 -14 q 319 -360 291 -298 q 374 -460 347 -422 z "},")":{"ha":391,"x_min":16,"x_max":351,"o":"m 183 -323 l 177 -319 q 296 187 296 -92 q 259 474 296 336 q 177 682 222 611 l 183 686 q 300 488 250 621 q 351 185 351 353 q 183 -323 351 -142 m 27 -466 l 16 -460 q 130 -211 62 -404 q 197 185 197 -19 q 136 559 197 375 q 96 669 116 618 q 56 758 75 720 q 16 821 36 796 l 27 829 q 251 174 251 576 q 188 -197 251 -26 q 27 -466 124 -368 z "},"*":{"ha":492,"x_min":31,"x_max":462,"o":"m 248 583 l 346 444 l 308 416 l 248 509 l 182 416 l 144 444 l 248 583 m 284 611 l 448 660 l 462 619 l 355 589 l 422 496 l 384 469 l 284 611 m 210 610 l 106 473 l 71 500 l 139 587 l 31 623 l 45 665 l 210 610 m 270 654 l 270 825 l 312 825 l 312 714 l 422 749 l 435 705 l 270 654 m 223 654 l 60 710 l 75 752 l 179 715 l 179 825 l 223 825 l 223 654 z "},"+":{"ha":926,"x_min":98,"x_max":827,"o":"m 98 218 l 98 278 l 432 278 l 432 613 l 492 613 l 492 278 l 827 278 l 827 218 l 492 218 l 492 -113 l 432 -113 l 432 218 l 98 218 z "},",":{"ha":275,"x_min":40,"x_max":235,"o":"m 81 41 l 40 81 l 74 116 l 177 14 q 128 -116 145 -88 q 80 -170 111 -144 l 57 -150 q 113 -35 113 -97 q 81 41 113 9 m 103 144 l 137 179 l 235 83 l 201 48 l 103 144 z "},"-":{"ha":448,"x_min":20,"x_max":429,"o":"m 86 156 l 70 156 q 109 205 90 195 q 173 216 129 216 l 279 216 q 366 230 340 216 q 408 283 391 244 l 429 283 q 299 165 403 165 l 141 165 q 86 156 102 165 m 362 319 l 379 319 q 339 271 357 280 q 276 260 320 260 l 170 260 q 83 246 109 260 q 41 193 58 232 l 20 193 q 150 310 45 310 l 308 310 q 362 319 347 310 z "},"­":{"ha":448,"x_min":20,"x_max":429,"o":"m 86 156 l 70 156 q 109 205 90 195 q 173 216 129 216 l 279 216 q 366 230 340 216 q 408 283 391 244 l 429 283 q 299 165 403 165 l 141 165 q 86 156 102 165 m 362 319 l 379 319 q 339 271 357 280 q 276 260 320 260 l 170 260 q 83 246 109 260 q 41 193 58 232 l 20 193 q 150 310 45 310 l 308 310 q 362 319 347 310 z "},".":{"ha":275,"x_min":40,"x_max":235,"o":"m 40 81 l 74 116 l 172 20 l 138 -15 l 40 81 m 103 144 l 137 179 l 235 83 l 201 48 l 103 144 z "},"/":{"ha":694,"x_min":79,"x_max":616,"o":"m 79 -25 l 556 827 l 616 827 l 138 -25 l 79 -25 z "},":":{"ha":275,"x_min":40,"x_max":235,"o":"m 40 81 l 74 116 l 172 20 l 138 -15 l 40 81 m 103 144 l 137 179 l 235 83 l 201 48 l 103 144 m 40 397 l 74 431 l 172 335 l 138 300 l 40 397 m 103 460 l 137 494 l 235 398 l 201 363 l 103 460 z "},";":{"ha":275,"x_min":40,"x_max":235,"o":"m 81 41 l 40 81 l 74 116 l 177 14 q 128 -116 145 -88 q 80 -170 111 -144 l 57 -150 q 113 -35 113 -97 q 81 41 113 9 m 103 144 l 137 179 l 235 83 l 201 48 l 103 144 m 40 397 l 74 431 l 172 335 l 138 300 l 40 397 m 103 460 l 137 494 l 235 398 l 201 363 l 103 460 z "},"<":{"ha":926,"x_min":100,"x_max":826,"o":"m 826 -19 l 826 -85 l 100 224 l 100 277 l 826 585 l 826 519 l 178 251 l 826 -19 z "},"=":{"ha":926,"x_min":100,"x_max":827,"o":"m 100 63 l 100 123 l 827 123 l 827 63 l 100 63 m 100 377 l 100 437 l 827 437 l 827 377 l 100 377 z "},">":{"ha":926,"x_min":100,"x_max":826,"o":"m 100 519 l 100 585 l 826 276 l 826 222 l 100 -85 l 100 -20 l 747 249 l 100 519 z "},"?":{"ha":405,"x_min":16,"x_max":376,"o":"m 113 110 l 209 14 l 177 -18 l 81 77 l 113 110 m 176 174 l 273 79 l 241 47 l 144 142 l 176 174 m 283 403 l 278 408 q 324 559 324 469 q 278 701 324 641 q 376 561 376 673 q 283 403 376 459 m 192 250 l 157 250 q 161 350 157 331 q 186 429 163 367 q 216 565 216 509 q 130 679 216 679 q 60 646 85 679 q 34 562 35 612 l 18 562 q 16 594 16 580 q 18 637 16 612 q 21 678 21 670 q 20 697 21 687 q 142 726 85 726 q 237 683 196 726 q 278 559 278 640 q 238 420 278 498 q 201 334 210 366 q 192 250 192 303 z "},"@":{"ha":1114,"x_min":-1,"x_max":1115,"o":"m 722 451 q 672 591 722 537 q 547 645 622 645 q 360 529 433 645 q 286 286 286 414 q 336 125 286 184 q 460 64 385 64 q 590 124 524 64 q 688 284 654 184 q 722 451 722 382 m 753 574 l 777 687 l 861 687 l 746 142 q 738 88 738 105 q 770 61 738 61 q 945 174 852 61 q 1036 453 1036 288 q 922 764 1036 637 q 584 890 807 890 q 202 735 347 890 q 56 347 56 580 q 203 -33 56 115 q 585 -181 351 -181 q 1046 32 886 -181 l 1115 32 q 590 -235 941 -235 q 162 -74 325 -235 q -1 353 -1 87 q 74 657 -1 518 q 162 780 112 727 q 279 870 213 832 q 588 945 409 945 q 855 886 745 945 q 1029 708 965 826 q 1093 453 1093 591 q 977 128 1093 255 q 743 0 860 0 q 661 72 661 0 q 667 125 661 89 q 435 0 559 0 q 266 83 332 0 q 200 287 200 165 q 245 486 200 382 q 374 646 290 589 q 546 704 456 704 q 753 574 681 704 z "},"A":{"ha":941,"x_min":21,"x_max":925,"o":"m 789 0 l 447 715 l 513 715 q 551 626 527 680 q 582 557 578 568 q 588 543 585 551 l 747 213 q 925 4 831 41 l 925 -8 q 789 0 833 0 m 305 341 l 510 341 l 412 547 l 305 341 m 595 164 l 534 290 l 279 290 l 214 164 q 211 155 214 164 q 201 136 210 155 q 186 77 186 107 q 243 4 186 26 l 243 -8 q 203 -5 232 -8 q 132 0 163 0 q 60 -5 102 0 q 21 -8 31 -8 l 21 4 q 157 161 96 42 l 382 599 q 311 680 356 651 q 205 711 266 708 l 205 723 l 229 723 q 317 719 261 723 q 393 715 375 715 l 735 0 q 577 -8 669 -1 l 577 4 q 629 60 629 13 q 595 164 629 94 z "},"B":{"ha":752,"x_min":46,"x_max":711,"o":"m 585 19 q 648 187 648 85 q 583 365 648 297 q 711 193 711 318 q 675 83 711 131 q 585 19 640 35 m 551 403 q 593 532 593 457 q 570 637 593 591 q 515 702 546 686 q 618 644 582 688 q 654 547 654 600 q 624 457 654 499 q 551 403 594 416 m 189 715 l 189 0 q 46 -8 130 -2 l 46 4 q 133 188 133 28 l 133 541 q 46 711 133 682 l 46 723 q 189 715 117 716 m 362 345 l 294 345 l 294 223 q 322 61 294 95 q 393 43 346 43 q 507 89 473 43 q 539 197 539 135 q 518 281 539 246 q 464 332 496 317 q 362 345 429 345 m 294 530 l 294 393 l 347 393 q 447 429 412 393 q 482 530 482 464 q 444 635 482 599 q 353 670 406 670 q 307 656 324 670 q 294 530 294 619 m 239 0 l 239 715 l 355 723 q 492 669 441 723 q 542 532 542 615 q 451 381 542 427 q 597 191 597 348 q 549 52 597 111 q 392 -8 500 -8 q 305 -3 352 -8 q 239 0 263 0 z "},"C":{"ha":795,"x_min":44,"x_max":762,"o":"m 184 619 q 106 354 106 519 q 202 62 106 160 q 87 173 130 93 q 44 352 44 252 q 66 478 44 420 q 117 567 87 535 q 184 619 144 597 m 748 147 l 762 147 l 740 33 q 618 -3 677 8 q 506 -15 560 -15 q 249 81 342 -15 q 156 357 156 176 q 256 633 156 537 q 517 728 355 728 q 756 685 635 728 q 751 584 751 600 q 751 556 751 570 l 751 540 q 748 473 751 505 l 736 473 q 502 677 694 677 q 294 593 372 677 q 217 350 217 509 q 288 124 217 211 q 501 37 359 37 q 645 68 580 37 q 748 147 709 98 z "},"D":{"ha":926,"x_min":41,"x_max":879,"o":"m 703 53 q 815 351 815 139 q 723 644 815 559 q 840 520 800 593 q 879 353 879 447 q 703 53 879 158 m 193 715 l 193 0 q 41 -8 144 0 l 41 4 q 115 65 94 18 q 136 251 136 110 l 136 531 q 115 656 136 617 q 41 711 94 695 l 41 723 q 193 715 130 716 m 308 652 q 297 438 297 621 l 297 273 q 317 56 297 124 q 436 39 369 39 q 633 119 562 39 q 706 354 706 199 q 634 590 706 506 q 422 674 562 674 q 308 652 350 674 m 282 0 l 241 0 l 241 715 q 372 720 334 717 q 449 723 428 723 q 623 676 551 723 q 730 552 694 629 q 765 361 765 477 q 680 88 765 184 q 449 -8 595 -8 q 296 -1 381 -8 q 282 0 292 0 z "},"E":{"ha":738,"x_min":50,"x_max":702,"o":"m 172 715 l 195 715 l 195 0 l 150 0 q 50 -8 126 0 l 50 4 q 105 39 86 14 q 132 98 125 64 q 139 247 139 133 l 139 531 q 113 666 139 629 q 50 711 86 703 l 50 723 q 172 715 91 720 m 515 0 l 243 0 l 243 715 l 441 715 q 651 723 496 715 q 650 692 650 703 q 653 629 650 679 q 655 593 655 596 l 655 576 l 644 576 q 588 652 619 635 q 471 668 557 668 l 363 668 q 315 665 337 668 q 301 555 303 642 l 300 509 l 300 398 l 446 398 q 556 412 529 398 q 600 480 583 427 l 614 480 q 609 374 609 419 q 613 300 609 346 q 616 246 614 286 l 602 246 q 566 328 595 306 q 470 351 535 351 l 300 351 l 300 203 q 309 53 300 117 q 370 49 338 49 l 473 49 q 600 68 557 49 q 688 155 645 87 l 702 155 q 680 83 694 124 q 653 -8 661 31 q 515 0 576 0 z "},"F":{"ha":637,"x_min":48,"x_max":608,"o":"m 270 0 l 243 0 l 243 715 l 411 715 q 604 723 484 715 q 604 677 604 705 q 606 616 604 661 q 608 564 608 566 l 608 547 l 593 547 q 478 669 574 669 l 347 669 q 307 663 324 669 q 298 519 298 609 l 298 379 l 416 379 q 528 398 493 379 q 573 464 563 416 l 588 464 q 583 363 583 391 q 585 305 583 346 q 588 250 588 267 l 588 227 l 573 227 q 458 334 570 334 l 298 334 l 298 177 q 391 4 298 24 l 391 -8 q 270 0 295 0 m 191 715 l 191 0 q 48 -8 131 0 l 48 4 q 115 62 95 18 q 136 201 136 104 l 136 536 q 111 665 136 629 q 48 710 86 701 l 48 723 q 191 715 121 717 z "},"G":{"ha":825,"x_min":41,"x_max":799,"o":"m 682 47 l 682 374 q 741 378 714 375 q 799 382 785 382 l 799 370 q 737 237 737 345 l 737 64 q 711 56 732 64 q 693 51 700 54 q 682 47 686 48 m 187 653 q 104 356 104 536 q 114 236 104 314 q 172 77 123 159 q 41 357 41 180 q 85 541 41 467 q 187 653 128 614 m 631 374 l 631 31 q 446 -14 524 -14 q 233 73 314 -14 q 173 184 193 117 q 153 340 153 252 q 478 728 153 728 q 709 688 597 728 q 711 591 709 625 q 713 520 713 562 l 700 520 q 623 635 684 593 q 476 677 562 677 q 212 361 212 677 q 437 39 212 39 q 564 82 526 39 q 576 165 576 104 l 576 256 q 504 370 576 355 l 504 382 q 574 378 529 380 q 631 374 608 375 z "},"H":{"ha":941,"x_min":47,"x_max":895,"o":"m 192 715 l 192 0 l 47 -8 l 47 4 q 102 39 79 13 q 131 100 124 65 q 138 218 138 134 l 138 530 q 112 666 138 630 q 47 711 87 702 l 47 723 q 192 715 89 718 m 747 0 l 747 715 q 895 723 821 715 l 895 711 q 805 547 808 686 l 803 482 l 803 176 q 895 4 803 24 l 895 -8 q 747 0 766 0 m 697 715 l 697 0 q 548 -8 667 -1 l 548 4 q 616 51 589 13 q 642 197 642 89 l 642 340 l 298 340 l 298 176 q 325 47 298 80 q 392 4 353 14 l 392 -8 q 242 0 308 -1 l 242 715 q 392 723 302 715 l 392 711 q 318 654 338 696 q 298 511 298 613 l 298 398 l 642 398 l 642 528 q 620 656 642 612 q 548 711 596 699 l 548 723 q 697 715 621 715 z "},"I":{"ha":477,"x_min":64,"x_max":413,"o":"m 264 0 l 264 715 q 413 723 348 715 l 413 711 q 347 667 373 703 q 319 513 319 630 l 319 190 q 348 50 319 85 q 413 4 376 14 l 413 -8 q 264 0 349 0 m 213 715 l 213 0 q 64 -8 164 0 l 64 4 q 137 63 117 18 q 157 225 157 108 l 157 528 q 136 658 157 616 q 64 711 115 699 l 64 723 q 213 715 147 716 z "},"J":{"ha":434,"x_min":-113,"x_max":388,"o":"m 191 715 l 191 189 q 166 -37 191 50 q 66 -189 141 -124 q -113 -269 -9 -254 l -113 -257 q 35 -153 -22 -214 q 114 -23 91 -94 q 136 159 136 47 l 136 564 q 118 667 136 635 q 47 709 98 698 l 47 723 q 191 715 144 716 m 388 723 l 388 711 q 316 671 335 701 q 297 574 297 640 l 297 196 q 307 64 297 102 q 340 0 316 26 q 267 -13 293 0 q 200 -74 240 -26 q 233 18 223 -33 q 241 181 241 66 l 241 715 q 388 723 296 716 z "},"K":{"ha":897,"x_min":53,"x_max":896,"o":"m 191 715 l 191 0 q 53 -8 156 0 l 53 4 q 135 130 135 21 l 135 579 q 118 669 135 640 q 53 711 101 697 l 53 723 q 191 715 118 716 m 327 414 l 703 0 l 629 0 l 297 369 l 297 130 q 315 46 297 74 q 381 4 333 18 l 381 -8 q 241 0 292 0 l 241 715 q 381 723 334 718 l 381 711 q 314 665 330 699 q 297 515 297 631 l 297 391 l 327 414 m 798 0 l 770 0 l 366 445 l 521 569 q 601 667 601 633 q 557 711 601 693 l 557 723 q 639 718 587 723 q 707 715 685 715 q 760 718 728 715 q 846 723 805 721 l 846 711 q 637 599 750 686 l 592 564 q 583 557 586 559 l 441 442 l 711 143 q 896 4 833 6 l 896 -8 q 798 0 802 0 z "},"L":{"ha":738,"x_min":49,"x_max":725,"o":"m 555 0 l 241 0 l 241 715 q 344 720 287 716 q 393 723 397 723 l 393 711 q 319 657 340 697 q 297 534 297 616 l 297 239 q 304 121 297 173 q 318 58 310 66 q 357 50 326 50 l 500 50 q 625 73 575 50 q 711 167 674 97 l 725 167 q 694 64 720 134 q 673 -8 677 19 q 555 0 618 0 m 49 723 l 192 715 l 192 0 l 150 0 q 49 -8 111 0 l 49 4 q 117 67 99 24 q 136 208 136 111 l 136 532 q 109 669 136 636 q 49 711 81 703 l 49 723 z "},"M":{"ha":1071,"x_min":37,"x_max":1041,"o":"m 540 242 l 757 715 l 809 715 l 841 0 l 814 0 q 740 -4 786 0 l 695 -8 l 695 4 q 777 150 777 26 q 775 195 777 148 l 758 591 l 541 115 l 260 715 l 317 715 l 540 242 m 891 0 l 859 715 l 882 715 q 1021 723 931 715 l 1021 711 q 949 667 974 703 q 922 582 922 632 l 924 509 l 939 184 q 966 54 943 96 q 1041 4 990 11 l 1041 -8 q 891 0 941 0 m 204 715 l 513 56 l 482 -8 l 201 590 l 184 185 q 182 135 182 124 q 274 4 182 16 l 274 -8 q 255 -6 273 -8 q 155 0 179 0 q 37 -8 122 0 l 37 4 q 131 180 123 26 l 151 644 q 37 711 111 694 l 37 723 q 155 716 92 717 l 204 715 z "},"N":{"ha":1071,"x_min":30,"x_max":1039,"o":"m 932 114 l 228 715 l 308 715 l 878 229 l 878 511 q 869 619 878 581 q 830 680 859 655 q 755 711 801 703 l 755 723 q 779 721 756 723 q 900 715 868 715 q 1039 723 929 715 l 1039 711 q 977 682 1004 706 q 942 625 951 659 q 932 528 932 590 l 932 114 m 151 715 l 932 47 l 932 -8 l 919 -8 l 304 515 l 304 199 q 331 56 304 96 q 414 4 357 16 l 414 -8 q 275 0 312 0 q 151 -8 234 0 l 151 4 q 230 59 209 18 q 251 205 251 100 l 250 559 l 201 601 q 30 711 100 688 l 30 723 l 151 715 z "},"O":{"ha":897,"x_min":35,"x_max":862,"o":"m 722 70 q 795 372 795 170 q 722 650 795 551 q 862 365 862 567 q 722 70 862 165 m 175 651 q 100 356 100 536 q 172 74 100 193 q 35 363 35 164 q 175 651 35 567 m 682 360 q 446 685 682 685 q 215 352 215 685 q 449 39 215 39 q 682 360 682 39 m 746 361 q 708 150 746 236 q 603 24 671 64 q 448 -18 536 -18 q 229 83 307 -18 q 152 361 152 184 q 231 644 152 545 q 446 741 309 741 q 666 644 585 741 q 746 361 746 547 z "},"P":{"ha":781,"x_min":41,"x_max":741,"o":"m 605 316 q 679 498 679 392 q 605 691 679 609 q 741 504 741 636 q 605 316 741 374 m 193 715 l 193 0 l 170 0 q 41 -8 127 0 l 41 4 q 106 44 77 8 q 136 194 136 80 l 136 524 q 115 658 136 618 q 41 711 94 697 l 41 723 q 193 715 132 716 m 297 505 l 297 357 q 397 338 344 338 q 526 385 484 338 q 569 505 569 433 q 526 627 569 578 q 393 676 484 676 q 319 661 342 676 q 297 505 297 644 m 292 0 l 242 0 l 242 715 q 269 715 259 715 q 343 720 307 717 q 395 723 367 723 q 573 660 516 723 q 629 501 629 596 q 568 347 629 404 q 407 288 506 288 q 297 307 352 288 l 297 186 q 322 55 297 97 q 403 4 347 12 l 403 -8 q 332 -2 374 -4 l 292 0 z "},"Q":{"ha":897,"x_min":35,"x_max":1284,"o":"m 722 70 q 795 372 795 170 q 722 650 795 551 q 862 365 862 567 q 722 70 862 165 m 175 651 q 100 356 100 536 q 172 74 100 193 q 35 363 35 164 q 175 651 35 567 m 682 360 q 446 685 682 685 q 215 352 215 685 q 449 39 215 39 q 682 360 682 39 m 587 14 q 716 -4 671 14 q 873 -90 762 -22 q 1149 -202 1059 -202 q 1278 -163 1224 -202 l 1284 -172 q 1131 -243 1223 -243 q 841 -127 1027 -243 q 752 -73 795 -98 q 694 -41 709 -48 q 620 -16 661 -24 q 518 -8 581 -8 q 774 -145 589 -24 q 1076 -285 960 -267 q 1006 -299 1036 -299 q 879 -267 946 -299 q 691 -149 810 -235 q 463 -17 534 -37 q 444 -18 455 -18 q 233 79 313 -18 q 152 361 152 176 q 231 644 152 545 q 446 741 309 741 q 665 644 584 741 q 746 361 746 547 q 587 14 746 98 z "},"R":{"ha":955,"x_min":39,"x_max":964,"o":"m 608 382 q 652 536 652 452 q 602 690 652 612 q 718 534 718 640 q 608 382 718 426 m 195 715 l 195 0 l 166 0 q 113 -4 149 0 q 39 -8 81 -8 l 39 4 q 111 47 83 9 q 140 193 140 85 l 140 542 q 39 711 140 690 l 39 723 q 195 715 83 718 m 301 528 l 301 381 q 388 371 341 371 q 541 530 541 371 q 389 678 541 678 q 313 659 340 678 q 301 528 301 631 m 264 0 l 245 0 l 245 715 q 332 718 286 715 q 418 723 385 723 q 556 666 511 723 q 602 527 602 610 q 483 347 602 387 q 582 312 542 339 q 711 195 625 283 q 927 61 844 61 q 962 73 944 61 l 964 60 q 889 25 937 25 q 781 64 838 25 q 623 208 728 100 q 378 338 497 338 q 578 182 452 315 q 720 48 667 90 q 824 6 774 6 l 824 0 q 779 -8 801 -8 q 665 25 713 -8 q 599 81 639 43 q 504 178 559 119 q 383 296 422 265 q 301 341 341 328 l 301 180 q 399 4 301 18 l 399 -8 q 264 0 317 0 z "},"S":{"ha":622,"x_min":37,"x_max":585,"o":"m 67 235 l 83 235 q 153 92 87 149 q 299 37 216 37 q 403 73 363 37 q 443 159 443 109 q 404 241 443 212 q 257 305 367 269 q 132 353 169 334 q 64 414 88 376 q 37 500 37 452 q 73 606 37 554 q 65 559 65 579 q 90 467 65 507 q 154 404 116 425 q 281 355 192 382 q 448 277 397 319 q 498 165 498 235 q 446 41 498 97 q 290 -15 394 -15 q 174 1 248 -15 q 76 15 109 14 l 71 20 q 72 50 72 32 q 68 117 72 72 q 64 185 64 163 q 67 235 64 214 m 546 519 l 532 519 q 469 635 531 597 q 323 673 409 673 q 210 644 254 673 q 165 574 165 614 q 201 505 165 530 q 345 441 237 478 q 486 385 446 406 q 557 317 528 361 q 585 216 585 271 q 523 83 585 131 q 546 172 546 115 q 521 269 546 227 q 456 336 494 311 q 328 391 416 362 q 153 467 194 435 q 113 566 113 498 q 175 687 113 643 q 352 730 237 730 q 543 703 430 730 l 543 698 l 544 672 q 545 623 544 652 q 547 562 547 589 q 546 519 547 545 z "},"T":{"ha":854,"x_min":22,"x_max":831,"o":"m 472 0 l 454 0 l 454 715 l 699 715 q 831 723 766 715 q 829 676 831 710 q 827 598 827 645 q 823 538 827 568 l 807 538 q 779 630 806 593 q 665 667 752 667 l 511 667 l 511 182 q 534 56 511 98 q 608 4 558 14 l 608 -8 q 472 0 488 0 m 180 715 l 404 715 l 404 0 l 384 0 q 252 -8 340 0 l 252 4 q 330 62 309 18 q 350 204 350 104 l 350 667 l 177 667 q 84 640 111 667 q 39 538 57 613 l 23 538 q 22 557 22 547 q 25 591 22 570 q 33 723 33 664 q 123 717 69 718 l 180 715 z "},"U":{"ha":984,"x_min":33,"x_max":946,"o":"m 743 715 l 743 0 l 680 0 q 687 66 686 22 q 451 -8 574 -8 q 324 24 378 -8 q 251 106 270 56 q 231 249 231 157 l 231 715 q 389 723 302 715 l 389 711 q 328 682 351 705 q 297 627 304 657 q 289 530 289 596 l 288 516 l 288 257 q 301 132 288 171 q 357 66 313 92 q 466 39 401 39 q 687 116 570 39 l 687 512 q 680 624 687 589 q 650 680 673 657 q 593 711 629 701 l 593 723 q 612 722 597 723 q 644 720 627 722 q 743 715 699 716 m 33 723 l 184 715 l 184 244 q 198 97 184 139 q 260 14 212 54 q 183 45 217 20 q 138 104 149 70 q 127 215 127 138 l 127 539 q 104 661 127 622 q 33 711 82 701 l 33 723 m 831 0 l 792 0 l 792 715 q 869 718 843 716 l 946 723 l 946 711 q 886 679 911 705 q 855 616 863 654 q 848 484 848 582 l 848 186 q 946 4 848 18 l 946 -8 q 831 0 857 0 z "},"V":{"ha":897,"x_min":14,"x_max":883,"o":"m 355 524 l 524 205 l 682 536 q 715 640 715 606 q 662 711 715 694 l 662 723 q 700 720 661 723 q 782 715 752 715 q 883 723 806 715 l 883 711 q 810 660 838 692 q 736 531 782 627 l 524 87 l 197 715 q 344 723 258 715 l 344 711 q 304 662 304 700 q 355 524 304 621 m 142 715 l 498 34 l 475 -15 l 464 -15 l 160 562 q 14 711 92 692 l 14 723 l 142 715 z "},"W":{"ha":1172,"x_min":20,"x_max":1152,"o":"m 530 715 l 813 40 l 792 -13 l 778 -13 l 603 401 l 472 101 l 201 715 q 269 718 205 715 l 299 720 l 342 723 l 342 711 q 300 658 300 694 q 333 547 300 622 l 472 231 l 576 466 l 533 568 q 478 665 505 636 q 401 711 452 694 l 401 723 q 530 715 469 716 m 145 715 l 444 39 l 420 -13 l 409 -13 l 155 561 q 20 711 96 694 l 20 723 q 145 715 56 718 m 713 541 l 840 237 l 947 498 q 983 633 983 585 q 923 711 983 696 l 923 723 q 1033 715 998 715 q 1152 723 1094 715 l 1152 711 q 1076 646 1104 684 q 1004 501 1047 606 l 840 103 l 583 715 q 728 723 666 718 l 728 711 q 682 654 682 695 q 713 541 682 615 z "},"X":{"ha":897,"x_min":-2,"x_max":899,"o":"m 135 715 l 711 0 q 542 -8 611 -2 l 542 4 q 578 45 578 18 q 522 151 578 80 l 399 302 l 274 151 q 222 58 222 87 q 269 4 222 16 l 269 -8 q 136 0 142 0 q 16 -8 96 0 l 16 4 q 165 107 86 28 q 262 214 241 183 q 271 225 264 217 l 368 341 l 192 561 q -2 711 86 693 l -2 723 q 135 715 54 718 m 772 0 l 198 715 q 343 723 280 717 l 343 711 q 319 676 319 696 q 380 572 319 646 l 467 464 l 545 558 q 607 665 607 632 q 555 711 607 695 l 555 723 q 690 715 661 715 q 804 723 705 715 l 804 711 q 723 674 761 700 q 621 572 684 647 l 499 425 l 666 217 q 899 4 817 30 l 899 -8 q 772 0 819 0 z "},"Y":{"ha":969,"x_min":3,"x_max":966,"o":"m 147 715 l 499 342 l 499 0 l 483 0 q 347 -8 424 0 l 347 4 q 417 49 391 14 q 442 178 442 82 l 442 326 l 227 554 q 3 711 103 684 l 3 723 q 125 715 60 715 l 147 715 m 551 0 l 551 361 l 212 715 l 231 715 q 398 723 312 715 l 398 711 q 358 673 358 699 q 439 553 358 637 l 583 403 l 717 559 q 762 653 762 612 q 715 711 762 700 l 715 723 q 798 718 731 723 q 846 715 825 715 q 966 723 858 715 l 966 711 q 883 669 915 696 q 813 595 852 643 q 804 583 811 591 l 606 353 l 606 180 q 704 4 606 24 l 704 -8 q 576 0 580 0 l 551 0 z "},"Z":{"ha":752,"x_min":12,"x_max":740,"o":"m 140 0 l 667 715 l 732 715 l 243 50 l 461 50 q 644 92 589 50 q 724 196 696 132 l 740 196 q 715 91 739 166 q 690 -8 692 20 q 523 0 598 0 l 140 0 m 604 715 l 78 0 l 12 0 l 503 665 l 265 665 q 108 640 154 665 q 37 539 61 614 l 21 539 q 33 646 22 571 q 38 698 38 683 q 37 723 38 700 q 222 715 105 715 l 604 715 z "},"[":{"ha":391,"x_min":113,"x_max":376,"o":"m 113 -461 l 113 823 q 163 820 131 821 l 163 -457 q 113 -461 139 -458 m 208 -457 l 208 820 q 321 825 264 820 q 376 827 353 827 l 376 814 q 290 783 319 810 q 258 671 258 755 l 258 -315 q 283 -415 258 -382 q 376 -453 308 -449 l 376 -465 q 292 -460 351 -465 q 208 -457 267 -458 z "},"\\":{"ha":694,"x_min":77,"x_max":618,"o":"m 558 -25 l 77 827 l 136 827 l 618 -25 l 558 -25 z "},"]":{"ha":391,"x_min":15,"x_max":277,"o":"m 277 823 l 277 -461 q 228 -457 252 -458 l 228 820 q 277 823 260 821 m 182 820 l 182 -457 q 99 -460 124 -458 q 15 -465 40 -465 l 15 -453 q 106 -416 80 -449 q 132 -315 132 -383 l 132 671 q 102 783 132 755 q 15 814 72 810 l 15 827 q 70 825 38 827 q 182 820 126 820 z "},"^":{"ha":652,"x_min":22,"x_max":629,"o":"m 22 376 l 326 741 l 629 376 l 585 340 l 326 652 l 65 340 l 22 376 z "},"_":{"ha":694,"x_min":-8,"x_max":703,"o":"m -8 -174 l -8 -104 l 703 -104 l 703 -174 l -8 -174 z "},"`":{"ha":463,"x_min":161,"x_max":374,"o":"m 374 576 l 327 576 l 161 779 l 269 779 l 374 576 z "},"a":{"ha":593,"x_min":37,"x_max":570,"o":"m 134 248 q 91 130 91 194 q 144 7 91 55 q 71 48 102 16 q 37 130 37 79 q 134 248 37 217 m 570 -8 l 439 0 l 439 352 q 429 431 439 406 q 389 475 418 456 q 469 433 448 463 q 490 321 490 401 l 490 111 q 505 35 490 58 q 570 4 519 12 l 570 -8 m 345 56 l 345 233 q 307 236 322 236 q 223 203 253 236 q 193 127 193 170 q 218 62 193 89 q 281 33 244 33 q 345 56 313 33 m 345 271 l 345 342 q 325 419 345 391 q 246 446 304 446 q 93 378 155 446 l 76 394 q 155 465 101 437 q 268 491 210 491 q 395 353 395 491 l 395 0 q 342 -8 363 -1 l 345 28 q 264 -8 311 -8 q 174 34 210 -8 q 138 129 138 76 q 182 233 138 190 q 298 277 226 277 q 345 271 321 277 z "},"b":{"ha":709,"x_min":20,"x_max":667,"o":"m 568 67 q 613 244 613 135 q 550 453 613 359 q 667 251 667 393 q 568 67 667 123 m 155 820 l 155 222 q 163 98 155 133 q 197 37 170 64 q 125 83 146 50 q 105 190 105 115 l 105 665 q 99 750 105 727 q 75 790 93 772 q 20 816 55 807 l 20 827 q 155 820 90 821 m 250 416 l 250 211 q 258 113 250 143 q 295 59 267 80 q 363 37 323 37 q 466 87 420 37 q 511 237 511 136 q 363 452 511 452 q 250 416 310 452 m 201 193 l 201 820 q 260 827 239 821 q 250 631 250 751 l 250 467 q 368 498 307 498 q 475 465 428 498 q 545 374 522 431 q 567 247 567 316 q 509 59 567 127 q 363 -8 450 -8 q 266 20 306 -8 q 214 85 226 48 q 201 193 201 121 z "},"c":{"ha":622,"x_min":38,"x_max":591,"o":"m 163 443 q 94 244 94 379 q 153 50 94 115 q 68 130 97 73 q 38 244 38 187 q 55 331 38 289 q 94 396 71 373 q 163 443 118 420 m 565 156 l 591 156 q 515 35 572 81 q 371 -14 456 -14 q 248 18 294 -14 q 170 102 200 50 q 139 236 139 156 q 200 419 139 347 q 391 491 260 491 q 574 458 484 491 q 573 439 574 451 q 572 427 572 431 q 576 365 572 404 q 578 333 578 342 q 574 298 578 321 l 560 298 q 494 412 544 372 q 375 452 444 452 q 245 399 296 452 q 194 251 194 347 q 240 95 194 157 q 374 33 286 33 q 565 156 497 33 z "},"d":{"ha":752,"x_min":40,"x_max":735,"o":"m 168 441 q 96 231 96 368 q 168 23 96 117 q 40 239 40 102 q 168 441 40 388 m 615 0 l 591 0 l 591 820 q 649 823 613 820 q 641 578 641 701 l 641 157 q 648 75 641 100 q 678 28 655 47 q 735 4 702 8 l 735 -8 q 615 0 661 0 m 496 232 l 496 415 q 376 450 437 450 q 244 392 291 450 q 197 236 197 334 q 241 90 197 147 q 354 31 283 31 q 492 90 427 31 q 496 232 496 153 m 545 820 l 545 0 q 490 -4 507 -1 q 492 38 492 18 q 352 -13 426 -13 q 197 59 251 -13 q 142 231 142 132 q 198 413 142 335 q 376 491 254 491 q 496 461 442 491 l 496 681 q 478 774 496 743 q 410 816 458 805 l 410 827 q 545 820 477 823 z "},"e":{"ha":651,"x_min":41,"x_max":621,"o":"m 146 54 l 144 50 q 41 235 41 109 q 60 330 41 284 q 136 421 78 375 l 140 418 q 97 240 97 344 q 146 54 97 132 m 621 272 l 560 272 q 496 453 557 395 q 621 272 605 408 m 206 322 l 448 322 q 416 409 444 371 q 330 447 386 447 q 247 412 281 447 q 206 322 213 378 m 515 272 l 201 272 q 199 231 199 238 q 248 89 199 142 q 373 36 296 36 q 488 71 437 36 q 570 163 540 105 l 599 163 q 361 -15 536 -15 q 199 58 256 -15 q 142 242 142 131 q 195 420 142 349 q 332 491 248 491 q 451 440 399 491 q 515 272 502 390 z "},"f":{"ha":463,"x_min":18,"x_max":446,"o":"m 35 407 l 18 416 q 109 484 59 484 l 133 484 l 133 614 q 152 739 133 700 q 221 802 170 779 q 183 648 183 752 l 183 0 q 62 -8 102 0 l 62 4 q 121 54 111 28 q 133 162 133 80 l 133 437 l 104 437 q 35 407 63 437 m 229 0 l 229 640 q 239 745 229 711 q 284 804 250 781 q 370 827 319 827 q 439 817 402 827 q 446 668 439 732 l 425 668 q 344 777 409 777 q 292 744 304 777 q 278 624 278 709 l 278 484 l 349 484 q 394 488 384 484 q 425 515 406 492 l 442 507 q 417 459 429 472 q 393 441 404 444 q 340 437 379 437 l 278 437 l 278 164 q 283 77 278 104 q 311 31 288 52 q 362 4 333 10 l 362 -8 q 229 0 288 0 z "},"g":{"ha":810,"x_min":45,"x_max":802,"o":"m 73 -271 q 313 -451 136 -408 q 242 -463 279 -463 q 109 -413 155 -463 q 61 -308 61 -363 q 73 -271 61 -292 m 155 455 q 101 283 101 380 q 140 132 101 198 q 72 187 98 142 q 45 282 45 231 q 77 391 45 345 q 155 455 109 436 m 784 488 l 802 484 q 743 400 793 400 q 682 420 720 400 q 627 439 647 439 q 570 408 591 439 l 572 404 q 593 409 587 409 q 655 380 614 409 q 717 359 687 359 q 754 370 739 359 l 760 363 q 694 326 731 326 q 631 353 669 326 q 586 380 604 374 q 608 285 608 330 q 508 121 608 160 q 551 283 551 186 q 490 472 551 398 q 551 431 532 455 q 637 485 593 485 q 694 467 661 485 q 745 448 729 448 q 784 488 770 448 m 249 -140 q 176 -224 176 -179 q 233 -315 176 -273 q 376 -358 292 -358 q 475 -333 435 -358 q 515 -274 515 -309 q 482 -225 515 -247 q 359 -177 450 -205 q 249 -140 279 -154 m 203 284 q 328 123 203 123 q 418 165 384 123 q 451 285 451 207 q 416 409 451 368 q 329 450 381 450 q 239 410 275 450 q 203 284 203 368 m 218 -127 q 132 -27 132 -88 q 254 95 132 47 q 146 284 146 139 q 198 435 146 380 q 325 491 249 491 q 455 437 403 491 q 507 282 507 383 q 338 75 507 99 q 265 32 265 64 q 286 4 265 14 q 397 -30 307 -6 q 597 -115 539 -68 q 655 -237 655 -164 q 595 -353 655 -314 l 592 -351 q 616 -267 616 -317 q 559 -153 616 -197 q 388 -80 502 -109 q 252 -37 279 -52 q 224 1 224 -23 q 255 64 224 26 q 186 -15 186 36 q 212 -64 186 -45 q 333 -113 238 -85 q 519 -184 471 -155 q 567 -267 567 -216 q 513 -366 567 -322 q 375 -409 460 -409 q 195 -350 271 -409 q 118 -229 118 -291 q 218 -127 118 -170 z "},"h":{"ha":738,"x_min":28,"x_max":720,"o":"m 585 0 l 585 345 q 572 431 585 406 q 523 475 559 458 q 610 440 585 471 q 635 338 635 411 l 635 130 q 720 4 635 20 l 720 -8 q 585 0 644 -1 m 203 0 l 203 820 q 262 823 229 820 q 254 631 254 673 l 254 458 q 394 491 316 491 q 494 461 448 491 q 540 346 540 432 l 540 0 l 484 0 q 490 172 490 105 l 490 307 q 482 389 490 363 q 448 431 475 414 q 382 448 422 448 q 254 418 315 448 l 254 159 q 267 54 254 82 q 327 4 280 23 l 327 -8 q 203 0 224 0 m 159 820 l 159 0 q 28 -8 115 -1 l 28 4 q 93 54 78 18 q 108 180 108 87 l 108 666 q 92 773 108 741 q 29 816 76 804 l 29 827 q 159 820 119 821 z "},"i":{"ha":391,"x_min":97,"x_max":380,"o":"m 198 157 l 198 484 l 249 484 l 249 147 q 335 24 249 24 q 380 35 363 24 l 380 20 q 304 -9 346 -9 q 241 14 267 -9 q 206 66 213 38 q 198 157 198 95 m 102 169 l 102 484 l 153 484 l 153 145 q 168 39 153 71 q 216 -9 182 5 l 195 -9 q 125 48 149 12 q 102 169 102 84 m 129 709 l 224 621 l 192 587 l 97 675 l 129 709 m 192 777 l 287 688 l 255 654 l 159 743 l 192 777 z "},"j":{"ha":347,"x_min":-37,"x_max":260,"o":"m 101 -126 l 101 484 l 151 484 l 151 -117 q 137 -288 151 -237 q 72 -391 121 -349 q -37 -441 22 -434 l -37 -422 q 44 -367 7 -408 q 90 -276 79 -327 q 101 -126 101 -227 m 199 -114 l 199 484 l 248 484 l 248 -110 q 231 -256 248 -212 q 162 -343 214 -302 q 191 -267 186 -301 q 199 -114 195 -240 m 106 709 l 197 624 l 165 591 l 75 676 l 106 709 m 170 774 l 260 689 l 229 656 l 138 741 l 170 774 z "},"k":{"ha":724,"x_min":31,"x_max":715,"o":"m 715 4 l 715 -8 q 597 0 627 -1 l 304 309 l 382 367 q 428 434 428 401 q 388 479 428 469 l 388 491 q 440 486 420 488 l 520 484 q 597 488 545 484 q 659 491 650 491 l 659 479 q 462 374 590 472 l 372 307 l 557 111 q 715 4 648 14 m 206 0 l 206 820 q 264 823 229 820 q 255 648 255 713 l 255 294 l 533 0 l 510 0 q 466 -4 488 0 q 409 64 444 27 l 255 227 l 255 131 q 274 45 255 76 q 338 4 292 14 l 338 -8 q 206 0 258 -1 m 31 827 l 159 820 l 159 0 q 31 -8 105 0 l 31 4 q 94 50 78 16 q 111 164 111 84 l 111 669 q 106 747 111 725 q 81 789 101 770 q 31 816 61 809 l 31 827 z "},"l":{"ha":391,"x_min":26,"x_max":379,"o":"m 376 26 l 379 12 q 308 -14 347 -14 q 226 29 252 -14 q 199 172 199 71 l 199 820 q 257 823 240 821 q 250 656 250 707 l 250 202 q 254 88 250 119 q 279 38 258 57 q 336 18 299 18 q 376 26 355 18 m 155 820 l 155 173 q 165 52 155 81 q 197 -5 175 23 q 140 29 160 5 q 112 90 119 52 q 105 210 105 123 l 105 665 q 100 748 105 726 q 76 791 95 772 q 26 816 57 810 l 26 827 q 91 823 47 827 q 155 820 113 821 z "},"m":{"ha":1128,"x_min":36,"x_max":1103,"o":"m 971 0 l 971 351 q 962 433 971 409 q 926 481 954 458 q 1000 445 979 474 q 1021 349 1021 416 l 1021 146 q 1039 46 1021 78 q 1103 4 1057 14 l 1103 -8 q 971 0 1025 0 m 163 484 l 163 0 q 36 -8 85 -1 l 36 4 q 98 50 83 20 q 113 142 113 79 l 113 345 q 96 437 113 406 q 36 479 79 469 l 36 491 q 163 484 46 489 m 209 0 l 209 484 q 263 491 245 488 q 260 451 260 466 q 418 498 349 498 q 516 464 486 498 q 546 365 546 429 l 546 0 q 416 -8 495 0 l 416 4 q 479 48 462 17 q 495 140 495 79 l 495 355 q 477 431 495 407 q 408 453 460 453 q 260 409 349 453 l 260 136 q 277 50 260 79 q 342 4 294 19 l 342 -8 q 209 0 281 0 m 589 0 l 589 374 q 549 484 589 456 q 624 441 601 481 q 800 498 711 498 q 876 478 842 498 q 917 431 908 458 q 926 347 926 405 l 926 0 q 865 -4 895 -1 q 875 128 875 49 l 875 330 q 870 406 875 386 q 844 441 865 426 q 791 456 823 456 q 639 408 730 456 q 642 370 642 402 l 642 138 q 659 43 642 75 q 722 4 676 14 l 722 -8 q 589 0 621 0 z "},"n":{"ha":752,"x_min":34,"x_max":732,"o":"m 597 0 l 597 331 q 587 430 597 399 q 544 479 578 458 q 618 448 590 476 q 646 315 646 418 l 646 157 q 652 75 646 99 q 681 29 659 48 q 732 4 703 9 l 732 -8 q 658 -3 710 -6 q 597 0 606 0 m 165 484 l 165 0 q 44 -8 96 -3 l 44 4 q 95 41 75 14 q 115 168 115 67 l 115 334 q 100 435 115 402 q 34 479 83 465 l 34 491 q 165 484 66 487 m 214 0 l 214 484 q 268 487 250 485 l 263 451 q 420 494 348 494 q 500 471 467 494 q 541 417 533 447 q 549 318 549 387 l 549 0 q 495 -4 522 -1 q 500 115 500 81 l 500 331 q 481 425 500 397 q 410 452 461 452 q 263 408 356 452 l 263 132 q 343 4 263 23 l 343 -8 q 214 0 262 0 z "},"o":{"ha":694,"x_min":43,"x_max":652,"o":"m 160 450 q 97 243 97 380 q 160 35 97 107 q 43 246 43 101 q 160 450 43 389 m 533 42 q 595 236 595 112 q 581 362 595 303 q 533 450 565 422 q 652 248 652 385 q 533 42 652 117 m 200 248 q 238 79 200 123 q 346 35 276 35 q 452 81 412 35 q 492 250 492 127 q 346 455 492 455 q 200 248 200 455 m 143 237 q 197 433 143 368 q 346 498 251 498 q 492 440 434 498 q 549 250 549 382 q 488 46 549 104 q 344 -12 425 -12 q 202 49 260 -12 q 143 237 143 109 z "},"p":{"ha":752,"x_min":27,"x_max":713,"o":"m 597 40 l 593 47 q 657 245 657 114 q 593 446 657 364 l 597 450 q 713 246 713 374 q 682 127 713 185 q 597 40 652 68 m 162 484 l 162 -417 l 109 -421 q 113 -207 113 -321 l 113 322 q 108 408 113 381 q 81 453 103 433 q 27 479 60 473 l 27 491 q 93 487 52 491 q 162 484 135 484 m 260 385 l 260 66 q 378 33 310 33 q 504 85 452 33 q 555 241 555 138 q 510 396 555 340 q 399 451 465 451 q 260 385 321 451 m 211 -417 l 211 484 q 263 487 247 486 q 260 444 260 460 q 398 494 328 494 q 556 420 500 494 q 612 241 612 347 q 551 62 612 137 q 384 -14 490 -14 q 260 16 325 -14 l 260 -258 q 268 -347 260 -321 q 304 -393 276 -373 q 382 -414 332 -412 l 382 -425 l 364 -425 q 308 -422 350 -425 q 211 -417 260 -418 z "},"q":{"ha":752,"x_min":39,"x_max":732,"o":"m 168 453 q 97 244 97 366 q 163 43 97 132 q 74 119 107 65 q 39 241 39 173 q 76 371 39 314 q 168 453 113 428 m 589 -417 l 589 484 q 732 491 663 485 l 732 479 q 674 456 696 475 q 646 412 653 438 q 639 326 639 387 l 639 -239 q 644 -338 639 -314 q 667 -382 649 -364 q 732 -414 688 -401 l 732 -425 q 661 -420 703 -425 q 589 -417 621 -417 m 494 63 l 494 386 q 359 454 429 454 q 252 401 300 454 q 203 241 203 349 q 250 85 203 138 q 378 33 296 33 q 494 63 431 33 m 544 484 l 544 -417 l 486 -421 q 494 -318 494 -386 l 494 17 q 366 -12 427 -12 q 206 56 269 -12 q 143 249 143 125 q 205 430 143 361 q 353 498 268 498 q 494 444 421 498 l 490 487 q 509 486 494 487 q 544 484 525 485 z "},"r":{"ha":550,"x_min":28,"x_max":552,"o":"m 163 484 l 163 0 q 28 -8 63 -1 l 28 4 q 98 52 83 24 q 115 159 115 82 l 115 334 q 96 437 115 406 q 28 479 76 469 l 28 491 q 163 484 49 487 m 212 0 l 212 484 q 266 491 234 484 q 260 400 262 465 q 362 491 332 491 q 427 471 380 491 q 484 454 469 454 q 528 481 503 454 q 530 485 530 484 q 536 491 531 486 l 552 484 q 468 410 519 410 q 399 433 450 410 q 368 442 378 442 q 298 400 335 442 q 328 406 316 406 q 398 382 347 406 q 451 367 435 367 q 473 374 462 367 q 409 331 440 331 q 362 347 395 331 q 297 370 315 370 q 260 350 279 370 l 260 144 q 283 43 260 75 q 355 4 305 11 l 355 -8 q 212 0 275 0 z "},"s":{"ha":507,"x_min":35,"x_max":469,"o":"m 58 180 l 68 180 q 136 75 89 117 q 237 33 183 33 q 311 55 280 33 q 341 106 341 77 q 311 156 341 137 q 197 192 279 175 q 75 244 115 210 q 35 330 35 278 q 62 405 35 370 q 59 374 59 388 q 79 310 59 340 q 133 267 98 281 q 247 232 167 252 q 357 187 323 214 q 391 111 391 161 q 349 24 391 58 q 226 -9 307 -9 q 62 25 155 -9 q 59 98 62 77 q 57 142 57 119 q 58 180 57 155 m 446 328 l 436 328 q 360 422 412 390 q 256 453 309 453 q 182 437 214 453 q 151 389 151 420 q 174 352 151 365 q 260 326 196 340 q 430 255 391 298 q 469 163 469 212 q 431 71 469 122 q 436 113 436 96 q 401 209 436 165 q 239 281 366 252 q 134 321 163 299 q 104 387 104 343 q 149 465 104 435 q 277 494 192 494 q 442 461 357 494 q 441 443 441 445 q 444 390 441 418 q 446 328 446 366 z "},"t":{"ha":507,"x_min":64,"x_max":490,"o":"m 108 175 l 108 427 l 64 427 l 64 433 l 158 522 l 158 135 q 171 43 158 68 q 206 3 184 16 q 129 44 151 7 q 108 175 108 80 m 254 625 l 254 474 l 370 474 q 418 481 401 474 q 458 511 435 488 l 475 511 q 416 440 434 454 q 365 427 399 427 l 254 427 l 254 168 q 260 89 254 111 q 286 52 265 68 q 345 37 307 37 q 475 108 420 37 l 490 100 q 328 -8 434 -8 q 252 12 283 -8 q 211 64 221 33 q 201 155 201 96 l 201 564 q 254 625 229 593 z "},"u":{"ha":738,"x_min":16,"x_max":714,"o":"m 578 0 l 578 484 q 714 491 661 485 l 714 479 q 648 437 666 468 q 629 338 629 406 l 629 150 q 648 45 629 78 q 714 4 666 14 l 714 -8 q 646 -3 691 -5 q 578 0 600 0 m 533 484 l 533 0 q 481 -4 507 0 q 483 16 482 3 q 483 38 483 28 q 324 -8 396 -8 q 245 14 275 -8 q 205 69 214 36 q 196 163 196 104 l 196 484 q 252 487 216 484 q 248 446 249 473 q 246 411 248 427 l 246 148 q 265 61 246 86 q 342 35 285 35 q 483 80 400 35 l 483 345 q 466 439 483 409 q 403 479 449 469 l 403 491 q 465 486 437 487 q 533 484 493 485 m 16 479 l 16 491 q 151 484 77 485 l 151 158 q 162 55 151 81 q 196 7 174 27 q 130 37 160 10 q 100 146 100 62 l 100 333 q 83 435 100 404 q 16 479 66 465 z "},"v":{"ha":724,"x_min":-5,"x_max":728,"o":"m 106 484 l 401 31 l 376 -9 l 372 -9 l 128 361 q 59 448 86 424 q -5 479 31 472 l -5 491 q 106 484 67 485 m 604 358 l 429 74 l 158 484 q 313 491 233 484 l 313 479 q 263 431 263 464 q 299 358 263 412 l 424 168 l 526 333 q 557 417 557 385 q 489 479 557 458 l 489 491 q 526 488 491 491 q 587 483 565 483 q 728 491 614 483 l 728 479 q 668 445 694 469 q 604 358 642 420 z "},"w":{"ha":969,"x_min":12,"x_max":958,"o":"m 826 344 l 696 84 l 494 484 q 640 491 549 484 l 640 479 q 587 430 587 467 q 607 368 587 408 l 696 197 l 767 338 q 791 420 791 387 q 735 479 791 471 l 735 491 q 849 484 823 484 q 958 491 887 484 l 956 479 q 833 359 878 457 q 826 344 830 352 m 444 484 l 671 33 l 648 -13 l 640 -13 l 485 296 l 378 84 l 175 484 q 296 491 267 488 l 296 479 q 260 440 260 467 q 281 382 260 422 l 378 193 l 457 349 l 435 392 q 339 479 399 460 l 339 491 q 444 484 389 486 m 125 484 l 353 34 l 330 -13 l 323 -13 l 132 362 q 77 445 104 416 q 12 479 51 471 l 12 491 q 125 484 12 491 z "},"x":{"ha":694,"x_min":15,"x_max":679,"o":"m 566 0 l 189 484 l 210 484 q 324 491 263 484 l 324 479 q 295 449 295 471 q 327 385 295 427 l 375 323 l 417 370 q 456 438 456 414 q 418 479 456 463 l 418 491 q 536 484 471 484 q 635 491 570 484 l 635 479 q 463 351 551 450 l 406 286 l 507 153 l 524 134 q 602 50 570 75 q 679 4 632 24 l 679 -8 q 620 -3 659 -5 q 566 0 580 0 m 131 484 l 508 0 q 364 -8 431 -1 l 364 4 q 401 39 401 14 q 359 113 401 61 l 309 177 l 262 124 q 224 50 224 82 q 258 4 224 18 l 258 -8 q 150 0 170 0 q 41 -8 112 0 l 41 4 q 212 140 107 22 l 279 216 l 148 383 q 15 479 96 450 l 15 491 q 131 484 37 488 z "},"y":{"ha":752,"x_min":3,"x_max":749,"o":"m 433 -258 l 433 -271 l 220 -314 l 382 0 l 153 355 q 3 479 80 467 l 3 491 q 126 479 45 486 l 438 0 l 367 -138 q 345 -209 345 -182 q 368 -246 345 -233 q 414 -260 391 -260 q 433 -258 417 -260 m 611 334 l 463 50 l 182 479 q 334 491 286 485 l 334 479 q 285 431 285 465 q 314 363 285 409 l 456 144 l 552 328 q 584 418 584 392 q 517 479 584 462 l 517 491 q 557 488 515 491 q 644 484 612 484 q 749 491 688 484 l 749 479 q 611 334 669 448 z "},"z":{"ha":578,"x_min":28,"x_max":551,"o":"m 390 0 l 147 0 l 490 484 q 551 491 500 484 l 239 45 l 365 45 q 470 72 437 45 q 517 163 503 98 l 530 163 q 523 81 530 137 q 511 -4 515 34 q 408 -1 463 -3 q 390 0 403 0 m 197 484 l 431 484 l 90 0 q 28 -4 79 -1 l 342 441 l 176 441 q 89 417 119 441 q 49 328 59 393 l 36 328 q 39 382 36 358 q 46 473 46 448 q 45 491 46 475 q 197 484 133 484 z "},"{":{"ha":496,"x_min":68,"x_max":471,"o":"m 349 -140 q 355 -336 349 -291 q 390 -413 359 -378 q 471 -460 419 -446 l 471 -474 q 370 -443 414 -474 q 313 -354 326 -412 q 298 -130 298 -296 q 300 -77 298 -113 q 300 -33 300 -62 q 282 96 300 58 q 216 160 262 134 q 311 121 284 155 q 343 48 339 87 q 349 -140 347 9 m 248 -108 q 249 -248 249 -170 q 257 -367 249 -338 q 297 -434 265 -395 q 222 -378 244 -418 q 199 -243 199 -339 l 199 -78 q 170 89 199 43 q 68 170 140 135 l 68 185 q 169 265 138 218 q 199 434 199 311 l 199 515 q 218 726 199 683 q 297 789 238 770 q 258 724 267 753 q 249 602 249 696 q 241 332 249 389 q 207 243 233 276 q 115 178 182 210 q 224 85 200 135 q 248 -108 246 35 m 349 616 q 345 325 349 382 q 309 233 340 263 q 216 195 279 201 q 271 239 255 215 q 294 286 286 263 q 300 431 300 307 q 306 679 300 618 q 355 785 312 739 q 456 829 399 829 q 471 829 465 829 l 471 814 q 380 754 408 798 q 349 616 351 709 z "},"|":{"ha":694,"x_min":317,"x_max":378,"o":"m 317 -463 l 317 827 l 378 827 l 378 -463 l 317 -463 z "},"}":{"ha":496,"x_min":25,"x_max":428,"o":"m 146 -140 q 153 48 149 9 q 184 121 157 87 q 280 160 212 155 q 224 115 239 139 q 203 69 209 90 q 198 16 199 58 q 196 -77 196 -26 q 190 -323 196 -264 q 140 -429 182 -385 q 39 -475 96 -475 q 25 -474 31 -475 l 25 -460 q 105 -414 77 -446 q 141 -336 135 -380 q 146 -140 146 -288 m 248 -108 q 273 85 250 37 q 380 178 296 135 q 281 254 303 215 q 252 346 258 292 q 246 602 246 400 q 238 722 246 693 q 199 789 230 751 q 277 726 258 769 q 297 515 297 683 l 296 434 q 326 267 296 313 q 428 185 356 220 l 428 170 q 327 90 358 136 q 296 -78 296 44 l 297 -163 q 278 -371 297 -329 q 199 -434 259 -415 q 237 -369 229 -397 q 246 -248 246 -342 q 247 -180 246 -212 q 248 -108 248 -149 m 146 616 q 116 754 144 709 q 25 814 86 798 l 25 829 q 125 798 81 829 q 183 709 169 766 q 197 485 197 649 q 196 431 197 450 q 195 388 195 417 q 214 259 195 297 q 280 195 232 221 q 186 233 214 199 q 153 304 159 264 q 146 616 146 345 z "},"~":{"ha":911,"x_min":94,"x_max":818,"o":"m 818 318 l 818 248 q 626 165 718 165 q 550 178 591 165 q 411 237 508 193 q 290 275 329 275 q 94 185 207 275 l 94 254 q 289 335 200 335 q 483 271 347 335 q 625 225 578 225 q 818 318 707 225 z "},"Ä":{"ha":941,"x_min":21,"x_max":925,"o":"m 789 0 l 447 715 l 513 715 q 551 626 527 680 q 582 557 578 568 q 588 543 585 551 l 747 213 q 925 4 831 41 l 925 -8 q 789 0 833 0 m 305 341 l 510 341 l 412 547 l 305 341 m 595 164 l 534 290 l 279 290 l 214 164 q 211 155 214 164 q 201 136 210 155 q 186 77 186 107 q 243 4 186 26 l 243 -8 q 203 -5 232 -8 q 132 0 163 0 q 60 -5 102 0 q 21 -8 31 -8 l 21 4 q 157 161 96 42 l 382 599 q 311 680 356 651 q 205 711 266 708 l 205 723 l 229 723 q 317 719 261 723 q 393 715 375 715 l 735 0 q 577 -8 669 -1 l 577 4 q 629 60 629 13 q 595 164 629 94 m 555 945 l 635 864 l 555 781 l 472 864 l 555 945 m 296 947 l 379 864 l 296 783 l 214 864 l 296 947 z "},"Å":{"ha":941,"x_min":21,"x_max":925,"o":"m 789 0 l 447 715 l 513 715 q 551 626 527 680 q 582 557 578 568 q 588 543 585 551 l 747 213 q 925 4 831 41 l 925 -8 q 789 0 833 0 m 305 341 l 510 341 l 412 547 l 305 341 m 595 164 l 534 290 l 279 290 l 214 164 q 211 155 214 164 q 201 136 210 155 q 186 77 186 107 q 243 4 186 26 l 243 -8 q 203 -5 232 -8 q 132 0 163 0 q 60 -5 102 0 q 21 -8 31 -8 l 21 4 q 157 161 96 42 l 382 599 q 311 680 356 651 q 205 711 266 708 l 205 723 l 229 723 q 317 719 261 723 q 393 715 375 715 l 735 0 q 577 -8 669 -1 l 577 4 q 629 60 629 13 q 595 164 629 94 m 431 907 q 389 890 406 907 q 372 848 372 873 q 389 807 372 825 q 431 789 407 789 q 473 807 455 789 q 490 848 490 825 q 473 890 490 873 q 431 907 456 907 m 431 960 q 509 928 475 960 q 541 850 541 895 q 509 772 541 804 q 431 740 476 740 q 353 772 385 740 q 321 850 321 804 q 353 928 321 895 q 431 960 387 960 z "},"Ç":{"ha":795,"x_min":44,"x_max":762,"o":"m 184 619 q 106 354 106 519 q 202 62 106 160 q 87 173 130 93 q 44 352 44 252 q 66 478 44 420 q 117 567 87 535 q 184 619 144 597 m 498 -15 l 455 -76 q 530 -113 498 -81 q 563 -189 563 -146 q 515 -280 563 -239 q 363 -327 468 -321 l 363 -290 q 492 -201 492 -280 q 363 -123 492 -123 l 442 -11 q 156 357 156 35 q 252 629 156 531 q 517 728 348 728 q 756 685 635 728 q 751 584 751 600 q 751 556 751 570 l 751 540 q 748 473 751 505 l 736 473 q 502 677 694 677 q 294 593 372 677 q 217 350 217 509 q 288 124 217 211 q 501 37 359 37 q 645 68 580 37 q 748 147 709 98 l 762 147 l 740 33 q 498 -15 614 -16 z "},"É":{"ha":738,"x_min":50,"x_max":702,"o":"m 172 715 l 195 715 l 195 0 l 150 0 q 50 -8 126 0 l 50 4 q 105 39 86 14 q 132 98 125 64 q 139 247 139 133 l 139 531 q 113 666 139 629 q 50 711 86 703 l 50 723 q 172 715 91 720 m 515 0 l 243 0 l 243 715 l 441 715 q 651 723 496 715 q 650 692 650 703 q 653 629 650 679 q 655 593 655 596 l 655 576 l 644 576 q 588 652 619 635 q 471 668 557 668 l 363 668 q 315 665 337 668 q 301 555 303 642 l 300 509 l 300 398 l 446 398 q 556 412 529 398 q 600 480 583 427 l 614 480 q 609 374 609 419 q 613 300 609 346 q 616 246 614 286 l 602 246 q 566 328 595 306 q 470 351 535 351 l 300 351 l 300 203 q 309 53 300 117 q 370 49 338 49 l 473 49 q 600 68 557 49 q 688 155 645 87 l 702 155 q 680 83 694 124 q 653 -8 661 31 q 515 0 576 0 m 513 985 l 347 782 l 299 782 l 404 985 l 513 985 z "},"Ñ":{"ha":1071,"x_min":30,"x_max":1039,"o":"m 932 114 l 228 715 l 308 715 l 878 229 l 878 511 q 869 619 878 581 q 830 680 859 655 q 755 711 801 703 l 755 723 q 779 721 756 723 q 900 715 868 715 q 1039 723 929 715 l 1039 711 q 977 682 1004 706 q 942 625 951 659 q 932 528 932 590 l 932 114 m 151 715 l 932 47 l 932 -8 l 919 -8 l 304 515 l 304 199 q 331 56 304 96 q 414 4 357 16 l 414 -8 q 275 0 312 0 q 151 -8 234 0 l 151 4 q 230 59 209 18 q 251 205 251 100 l 250 559 l 201 601 q 30 711 100 688 l 30 723 l 151 715 m 787 937 l 820 937 q 684 816 782 816 q 548 859 648 816 q 478 876 505 876 q 393 816 419 876 l 361 816 q 495 938 397 938 q 648 891 531 938 q 703 877 682 877 q 787 937 766 877 z "},"Ö":{"ha":897,"x_min":35,"x_max":862,"o":"m 722 70 q 795 372 795 170 q 722 650 795 551 q 862 365 862 567 q 722 70 862 165 m 175 651 q 100 356 100 536 q 172 74 100 193 q 35 363 35 164 q 175 651 35 567 m 682 360 q 446 685 682 685 q 215 352 215 685 q 449 39 215 39 q 682 360 682 39 m 746 361 q 708 150 746 236 q 603 24 671 64 q 448 -18 536 -18 q 229 83 307 -18 q 152 361 152 184 q 231 644 152 545 q 446 741 309 741 q 666 644 585 741 q 746 361 746 547 m 573 945 l 654 864 l 573 781 l 490 864 l 573 945 m 314 947 l 397 864 l 314 783 l 232 864 l 314 947 z "},"Ü":{"ha":984,"x_min":33,"x_max":946,"o":"m 743 715 l 743 0 l 680 0 q 687 66 686 22 q 451 -8 574 -8 q 324 24 378 -8 q 251 106 270 56 q 231 249 231 157 l 231 715 q 389 723 302 715 l 389 711 q 328 682 351 705 q 297 627 304 657 q 289 530 289 596 l 288 516 l 288 257 q 301 132 288 171 q 357 66 313 92 q 466 39 401 39 q 687 116 570 39 l 687 512 q 680 624 687 589 q 650 680 673 657 q 593 711 629 701 l 593 723 q 612 722 597 723 q 644 720 627 722 q 743 715 699 716 m 33 723 l 184 715 l 184 244 q 198 97 184 139 q 260 14 212 54 q 183 45 217 20 q 138 104 149 70 q 127 215 127 138 l 127 539 q 104 661 127 622 q 33 711 82 701 l 33 723 m 831 0 l 792 0 l 792 715 q 869 718 843 716 l 946 723 l 946 711 q 886 679 911 705 q 855 616 863 654 q 848 484 848 582 l 848 186 q 946 4 848 18 l 946 -8 q 831 0 857 0 m 617 945 l 698 864 l 617 781 l 534 864 l 617 945 m 358 947 l 441 864 l 358 783 l 276 864 l 358 947 z "},"á":{"ha":593,"x_min":37,"x_max":570,"o":"m 134 248 q 91 130 91 194 q 144 7 91 55 q 71 48 102 16 q 37 130 37 79 q 134 248 37 217 m 570 -8 l 439 0 l 439 352 q 429 431 439 406 q 389 475 418 456 q 469 433 448 463 q 490 321 490 401 l 490 111 q 505 35 490 58 q 570 4 519 12 l 570 -8 m 345 56 l 345 233 q 307 236 322 236 q 223 203 253 236 q 193 127 193 170 q 218 62 193 89 q 281 33 244 33 q 345 56 313 33 m 345 271 l 345 342 q 325 419 345 391 q 246 446 304 446 q 93 378 155 446 l 76 394 q 155 465 101 437 q 268 491 210 491 q 395 353 395 491 l 395 0 q 342 -8 363 -1 l 345 28 q 264 -8 311 -8 q 174 34 210 -8 q 138 129 138 76 q 182 233 138 190 q 298 277 226 277 q 345 271 321 277 m 439 779 l 274 576 l 226 576 l 331 779 l 439 779 z "},"à":{"ha":593,"x_min":37,"x_max":570,"o":"m 134 248 q 91 130 91 194 q 144 7 91 55 q 71 48 102 16 q 37 130 37 79 q 134 248 37 217 m 570 -8 l 439 0 l 439 352 q 429 431 439 406 q 389 475 418 456 q 469 433 448 463 q 490 321 490 401 l 490 111 q 505 35 490 58 q 570 4 519 12 l 570 -8 m 345 56 l 345 233 q 307 236 322 236 q 223 203 253 236 q 193 127 193 170 q 218 62 193 89 q 281 33 244 33 q 345 56 313 33 m 345 271 l 345 342 q 325 419 345 391 q 246 446 304 446 q 93 378 155 446 l 76 394 q 155 465 101 437 q 268 491 210 491 q 395 353 395 491 l 395 0 q 342 -8 363 -1 l 345 28 q 264 -8 311 -8 q 174 34 210 -8 q 138 129 138 76 q 182 233 138 190 q 298 277 226 277 q 345 271 321 277 m 382 576 l 335 576 l 169 779 l 277 779 l 382 576 z "},"â":{"ha":593,"x_min":37,"x_max":570,"o":"m 134 248 q 91 130 91 194 q 144 7 91 55 q 71 48 102 16 q 37 130 37 79 q 134 248 37 217 m 570 -8 l 439 0 l 439 352 q 429 431 439 406 q 389 475 418 456 q 469 433 448 463 q 490 321 490 401 l 490 111 q 505 35 490 58 q 570 4 519 12 l 570 -8 m 345 56 l 345 233 q 307 236 322 236 q 223 203 253 236 q 193 127 193 170 q 218 62 193 89 q 281 33 244 33 q 345 56 313 33 m 345 271 l 345 342 q 325 419 345 391 q 246 446 304 446 q 93 378 155 446 l 76 394 q 155 465 101 437 q 268 491 210 491 q 395 353 395 491 l 395 0 q 342 -8 363 -1 l 345 28 q 264 -8 311 -8 q 174 34 210 -8 q 138 129 138 76 q 182 233 138 190 q 298 277 226 277 q 345 271 321 277 m 281 713 l 127 576 l 79 576 l 242 779 l 321 779 l 484 576 l 436 576 l 281 713 z "},"ä":{"ha":593,"x_min":37,"x_max":570,"o":"m 134 248 q 91 130 91 194 q 144 7 91 55 q 71 48 102 16 q 37 130 37 79 q 134 248 37 217 m 570 -8 l 439 0 l 439 352 q 429 431 439 406 q 389 475 418 456 q 469 433 448 463 q 490 321 490 401 l 490 111 q 505 35 490 58 q 570 4 519 12 l 570 -8 m 345 56 l 345 233 q 307 236 322 236 q 223 203 253 236 q 193 127 193 170 q 218 62 193 89 q 281 33 244 33 q 345 56 313 33 m 345 271 l 345 342 q 325 419 345 391 q 246 446 304 446 q 93 378 155 446 l 76 394 q 155 465 101 437 q 268 491 210 491 q 395 353 395 491 l 395 0 q 342 -8 363 -1 l 345 28 q 264 -8 311 -8 q 174 34 210 -8 q 138 129 138 76 q 182 233 138 190 q 298 277 226 277 q 345 271 321 277 m 421 741 l 502 660 l 421 576 l 338 660 l 421 741 m 162 743 l 245 660 l 162 578 l 80 660 l 162 743 z "},"ã":{"ha":593,"x_min":37,"x_max":570,"o":"m 134 248 q 91 130 91 194 q 144 7 91 55 q 71 48 102 16 q 37 130 37 79 q 134 248 37 217 m 570 -8 l 439 0 l 439 352 q 429 431 439 406 q 389 475 418 456 q 469 433 448 463 q 490 321 490 401 l 490 111 q 505 35 490 58 q 570 4 519 12 l 570 -8 m 345 56 l 345 233 q 307 236 322 236 q 223 203 253 236 q 193 127 193 170 q 218 62 193 89 q 281 33 244 33 q 345 56 313 33 m 345 271 l 345 342 q 325 419 345 391 q 246 446 304 446 q 93 378 155 446 l 76 394 q 155 465 101 437 q 268 491 210 491 q 395 353 395 491 l 395 0 q 342 -8 363 -1 l 345 28 q 264 -8 311 -8 q 174 34 210 -8 q 138 129 138 76 q 182 233 138 190 q 298 277 226 277 q 345 271 321 277 m 499 731 l 532 731 q 395 610 494 610 q 260 652 359 610 q 190 670 217 670 q 105 610 131 670 l 73 610 q 207 732 109 732 q 359 685 243 732 q 415 671 393 671 q 499 731 477 671 z "},"å":{"ha":593,"x_min":37,"x_max":570,"o":"m 134 248 q 91 130 91 194 q 144 7 91 55 q 71 48 102 16 q 37 130 37 79 q 134 248 37 217 m 570 -8 l 439 0 l 439 352 q 429 431 439 406 q 389 475 418 456 q 469 433 448 463 q 490 321 490 401 l 490 111 q 505 35 490 58 q 570 4 519 12 l 570 -8 m 345 56 l 345 233 q 307 236 322 236 q 223 203 253 236 q 193 127 193 170 q 218 62 193 89 q 281 33 244 33 q 345 56 313 33 m 345 271 l 345 342 q 325 419 345 391 q 246 446 304 446 q 93 378 155 446 l 76 394 q 155 465 101 437 q 268 491 210 491 q 395 353 395 491 l 395 0 q 342 -8 363 -1 l 345 28 q 264 -8 311 -8 q 174 34 210 -8 q 138 129 138 76 q 182 233 138 190 q 298 277 226 277 q 345 271 321 277 m 298 747 q 256 730 273 747 q 239 688 239 712 q 256 646 239 664 q 298 629 274 629 q 340 646 322 629 q 357 688 357 663 q 339 730 357 712 q 298 747 322 747 m 298 799 q 375 768 342 799 q 408 689 408 736 q 376 612 408 644 q 298 579 343 579 q 220 612 252 579 q 188 689 188 644 q 220 768 188 736 q 298 799 252 799 z "},"ç":{"ha":622,"x_min":38,"x_max":591,"o":"m 163 443 q 94 244 94 379 q 153 50 94 115 q 68 130 97 73 q 38 244 38 187 q 55 331 38 289 q 94 396 71 373 q 163 443 118 420 m 328 -11 q 205 55 271 -11 q 139 236 139 121 q 200 419 139 347 q 391 491 260 491 q 574 458 484 491 q 573 439 574 451 q 572 427 572 431 q 576 365 572 404 q 578 333 578 342 q 574 298 578 321 l 560 298 q 494 412 544 372 q 375 452 444 452 q 245 399 296 452 q 194 251 194 347 q 240 95 194 157 q 374 33 286 33 q 565 156 497 33 l 591 156 q 376 -13 545 -8 l 333 -75 q 412 -106 381 -75 q 442 -177 442 -138 q 391 -273 442 -232 q 250 -313 340 -313 l 250 -281 q 379 -192 379 -269 q 352 -142 379 -159 q 290 -125 325 -125 q 239 -130 274 -125 q 328 -11 287 -77 z "},"é":{"ha":651,"x_min":41,"x_max":621,"o":"m 146 54 l 144 50 q 41 235 41 109 q 60 330 41 284 q 136 421 78 375 l 140 418 q 97 240 97 344 q 146 54 97 132 m 621 272 l 560 272 q 496 453 557 395 q 621 272 605 408 m 206 322 l 448 322 q 416 409 444 371 q 330 447 386 447 q 247 412 281 447 q 206 322 213 378 m 515 272 l 201 272 q 199 231 199 238 q 248 89 199 142 q 373 36 296 36 q 488 71 437 36 q 570 163 540 105 l 599 163 q 361 -15 536 -15 q 199 58 256 -15 q 142 242 142 131 q 195 420 142 349 q 332 491 248 491 q 451 440 399 491 q 515 272 502 390 m 469 779 l 303 576 l 255 576 l 360 779 l 469 779 z "},"è":{"ha":651,"x_min":41,"x_max":621,"o":"m 146 54 l 144 50 q 41 235 41 109 q 60 330 41 284 q 136 421 78 375 l 140 418 q 97 240 97 344 q 146 54 97 132 m 621 272 l 560 272 q 496 453 557 395 q 621 272 605 408 m 206 322 l 448 322 q 416 409 444 371 q 330 447 386 447 q 247 412 281 447 q 206 322 213 378 m 515 272 l 201 272 q 199 231 199 238 q 248 89 199 142 q 373 36 296 36 q 488 71 437 36 q 570 163 540 105 l 599 163 q 361 -15 536 -15 q 199 58 256 -15 q 142 242 142 131 q 195 420 142 349 q 332 491 248 491 q 451 440 399 491 q 515 272 502 390 m 444 576 l 397 576 l 231 779 l 339 779 l 444 576 z "},"ê":{"ha":651,"x_min":41,"x_max":621,"o":"m 146 54 l 144 50 q 41 235 41 109 q 60 330 41 284 q 136 421 78 375 l 140 418 q 97 240 97 344 q 146 54 97 132 m 621 272 l 560 272 q 496 453 557 395 q 621 272 605 408 m 206 322 l 448 322 q 416 409 444 371 q 330 447 386 447 q 247 412 281 447 q 206 322 213 378 m 515 272 l 201 272 q 199 231 199 238 q 248 89 199 142 q 373 36 296 36 q 488 71 437 36 q 570 163 540 105 l 599 163 q 361 -15 536 -15 q 199 58 256 -15 q 142 242 142 131 q 195 420 142 349 q 332 491 248 491 q 451 440 399 491 q 515 272 502 390 m 326 713 l 172 576 l 124 576 l 288 779 l 367 779 l 530 576 l 481 576 l 326 713 z "},"ë":{"ha":651,"x_min":41,"x_max":621,"o":"m 146 54 l 144 50 q 41 235 41 109 q 60 330 41 284 q 136 421 78 375 l 140 418 q 97 240 97 344 q 146 54 97 132 m 621 272 l 560 272 q 496 453 557 395 q 621 272 605 408 m 206 322 l 448 322 q 416 409 444 371 q 330 447 386 447 q 247 412 281 447 q 206 322 213 378 m 515 272 l 201 272 q 199 231 199 238 q 248 89 199 142 q 373 36 296 36 q 488 71 437 36 q 570 163 540 105 l 599 163 q 361 -15 536 -15 q 199 58 256 -15 q 142 242 142 131 q 195 420 142 349 q 332 491 248 491 q 451 440 399 491 q 515 272 502 390 m 450 741 l 531 660 l 450 576 l 368 660 l 450 741 m 191 743 l 275 660 l 191 578 l 109 660 l 191 743 z "},"í":{"ha":391,"x_min":100,"x_max":380,"o":"m 198 157 l 198 484 l 249 484 l 249 147 q 336 24 249 24 q 380 35 361 24 l 380 20 q 304 -9 347 -9 q 241 14 267 -9 q 206 66 213 38 q 198 157 198 95 m 102 169 l 102 484 l 153 484 l 153 145 q 168 39 153 71 q 216 -9 182 5 l 195 -9 q 125 48 149 12 q 102 169 102 84 m 314 779 l 149 576 l 100 576 l 205 779 l 314 779 z "},"ì":{"ha":391,"x_min":59,"x_max":380,"o":"m 198 157 l 198 484 l 249 484 l 249 147 q 336 24 249 24 q 380 35 361 24 l 380 20 q 304 -9 347 -9 q 241 14 267 -9 q 206 66 213 38 q 198 157 198 95 m 102 169 l 102 484 l 153 484 l 153 145 q 168 39 153 71 q 216 -9 182 5 l 195 -9 q 125 48 149 12 q 102 169 102 84 m 273 576 l 225 576 l 59 779 l 168 779 l 273 576 z "},"î":{"ha":391,"x_min":-22,"x_max":383,"o":"m 198 157 l 198 484 l 249 484 l 249 147 q 336 24 249 24 q 380 35 361 24 l 380 20 q 304 -9 347 -9 q 241 14 267 -9 q 206 66 213 38 q 198 157 198 95 m 102 169 l 102 484 l 153 484 l 153 145 q 168 39 153 71 q 216 -9 182 5 l 195 -9 q 125 48 149 12 q 102 169 102 84 m 180 713 l 26 576 l -22 576 l 141 779 l 220 779 l 383 576 l 335 576 l 180 713 z "},"ï":{"ha":391,"x_min":-21,"x_max":401,"o":"m 198 157 l 198 484 l 249 484 l 249 147 q 336 24 249 24 q 380 35 361 24 l 380 20 q 304 -9 347 -9 q 241 14 267 -9 q 206 66 213 38 q 198 157 198 95 m 102 169 l 102 484 l 153 484 l 153 145 q 168 39 153 71 q 216 -9 182 5 l 195 -9 q 125 48 149 12 q 102 169 102 84 m 320 741 l 401 660 l 320 576 l 237 660 l 320 741 m 61 743 l 144 660 l 61 578 l -21 660 l 61 743 z "},"ñ":{"ha":752,"x_min":34,"x_max":732,"o":"m 597 0 l 597 331 q 587 430 597 399 q 544 479 578 458 q 618 448 590 476 q 646 315 646 418 l 646 157 q 652 75 646 99 q 681 29 659 48 q 732 4 703 9 l 732 -8 q 658 -3 710 -6 q 597 0 606 0 m 165 484 l 165 0 q 44 -8 96 -3 l 44 4 q 95 41 75 14 q 115 168 115 67 l 115 334 q 100 435 115 402 q 34 479 83 465 l 34 491 q 165 484 66 487 m 214 0 l 214 484 q 268 487 250 485 l 263 451 q 420 494 348 494 q 500 471 467 494 q 541 417 533 447 q 549 318 549 387 l 549 0 q 495 -4 522 -1 q 500 115 500 81 l 500 331 q 481 425 500 397 q 410 452 461 452 q 263 408 356 452 l 263 132 q 343 4 263 23 l 343 -8 q 214 0 262 0 m 579 731 l 612 731 q 475 610 574 610 q 340 652 439 610 q 270 670 297 670 q 185 610 211 670 l 153 610 q 287 732 189 732 q 439 685 323 732 q 495 671 473 671 q 579 731 557 671 z "},"ó":{"ha":694,"x_min":43,"x_max":652,"o":"m 160 450 q 97 243 97 380 q 160 35 97 107 q 43 246 43 101 q 160 450 43 389 m 533 42 q 595 236 595 112 q 581 362 595 303 q 533 450 565 422 q 652 248 652 385 q 533 42 652 117 m 200 248 q 238 79 200 123 q 346 35 276 35 q 452 81 412 35 q 492 250 492 127 q 346 455 492 455 q 200 248 200 455 m 143 237 q 197 433 143 368 q 346 498 251 498 q 492 440 434 498 q 549 250 549 382 q 488 46 549 104 q 344 -12 425 -12 q 202 49 260 -12 q 143 237 143 109 m 490 779 l 325 576 l 277 576 l 382 779 l 490 779 z "},"ò":{"ha":694,"x_min":43,"x_max":652,"o":"m 160 450 q 97 243 97 380 q 160 35 97 107 q 43 246 43 101 q 160 450 43 389 m 533 42 q 595 236 595 112 q 581 362 595 303 q 533 450 565 422 q 652 248 652 385 q 533 42 652 117 m 200 248 q 238 79 200 123 q 346 35 276 35 q 452 81 412 35 q 492 250 492 127 q 346 455 492 455 q 200 248 200 455 m 143 237 q 197 433 143 368 q 346 498 251 498 q 492 440 434 498 q 549 250 549 382 q 488 46 549 104 q 344 -12 425 -12 q 202 49 260 -12 q 143 237 143 109 m 450 576 l 402 576 l 236 779 l 345 779 l 450 576 z "},"ô":{"ha":694,"x_min":43,"x_max":652,"o":"m 160 450 q 97 243 97 380 q 160 35 97 107 q 43 246 43 101 q 160 450 43 389 m 533 42 q 595 236 595 112 q 581 362 595 303 q 533 450 565 422 q 652 248 652 385 q 533 42 652 117 m 200 248 q 238 79 200 123 q 346 35 276 35 q 452 81 412 35 q 492 250 492 127 q 346 455 492 455 q 200 248 200 455 m 143 237 q 197 433 143 368 q 346 498 251 498 q 492 440 434 498 q 549 250 549 382 q 488 46 549 104 q 344 -12 425 -12 q 202 49 260 -12 q 143 237 143 109 m 348 713 l 194 576 l 146 576 l 309 779 l 389 779 l 551 576 l 503 576 l 348 713 z "},"ö":{"ha":694,"x_min":43,"x_max":652,"o":"m 160 450 q 97 243 97 380 q 160 35 97 107 q 43 246 43 101 q 160 450 43 389 m 533 42 q 595 236 595 112 q 581 362 595 303 q 533 450 565 422 q 652 248 652 385 q 533 42 652 117 m 200 248 q 238 79 200 123 q 346 35 276 35 q 452 81 412 35 q 492 250 492 127 q 346 455 492 455 q 200 248 200 455 m 143 237 q 197 433 143 368 q 346 498 251 498 q 492 440 434 498 q 549 250 549 382 q 488 46 549 104 q 344 -12 425 -12 q 202 49 260 -12 q 143 237 143 109 m 472 741 l 553 660 l 472 576 l 389 660 l 472 741 m 213 743 l 296 660 l 213 578 l 131 660 l 213 743 z "},"õ":{"ha":694,"x_min":43,"x_max":652,"o":"m 160 450 q 97 243 97 380 q 160 35 97 107 q 43 246 43 101 q 160 450 43 389 m 533 42 q 595 236 595 112 q 581 362 595 303 q 533 450 565 422 q 652 248 652 385 q 533 42 652 117 m 200 248 q 238 79 200 123 q 346 35 276 35 q 452 81 412 35 q 492 250 492 127 q 346 455 492 455 q 200 248 200 455 m 143 237 q 197 433 143 368 q 346 498 251 498 q 492 440 434 498 q 549 250 549 382 q 488 46 549 104 q 344 -12 425 -12 q 202 49 260 -12 q 143 237 143 109 m 550 731 l 583 731 q 446 610 545 610 q 311 652 410 610 q 241 670 268 670 q 156 610 182 670 l 124 610 q 258 732 160 732 q 410 685 294 732 q 466 671 444 671 q 550 731 528 671 z "},"ú":{"ha":738,"x_min":16,"x_max":714,"o":"m 578 0 l 578 484 q 714 491 661 485 l 714 479 q 648 437 666 468 q 629 338 629 406 l 629 150 q 648 45 629 78 q 714 4 666 14 l 714 -8 q 646 -3 691 -5 q 578 0 600 0 m 533 484 l 533 0 q 481 -4 507 0 q 483 16 482 3 q 483 38 483 28 q 324 -8 396 -8 q 245 14 275 -8 q 205 69 214 36 q 196 163 196 104 l 196 484 q 252 487 216 484 q 248 446 249 473 q 246 411 248 427 l 246 148 q 265 61 246 86 q 342 35 285 35 q 483 80 400 35 l 483 345 q 466 439 483 409 q 403 479 449 469 l 403 491 q 465 486 437 487 q 533 484 493 485 m 16 479 l 16 491 q 151 484 77 485 l 151 158 q 162 55 151 81 q 196 7 174 27 q 130 37 160 10 q 100 146 100 62 l 100 333 q 83 435 100 404 q 16 479 66 465 m 488 779 l 322 576 l 274 576 l 379 779 l 488 779 z "},"ù":{"ha":738,"x_min":16,"x_max":714,"o":"m 578 0 l 578 484 q 714 491 661 485 l 714 479 q 648 437 666 468 q 629 338 629 406 l 629 150 q 648 45 629 78 q 714 4 666 14 l 714 -8 q 646 -3 691 -5 q 578 0 600 0 m 533 484 l 533 0 q 481 -4 507 0 q 483 16 482 3 q 483 38 483 28 q 324 -8 396 -8 q 245 14 275 -8 q 205 69 214 36 q 196 163 196 104 l 196 484 q 252 487 216 484 q 248 446 249 473 q 246 411 248 427 l 246 148 q 265 61 246 86 q 342 35 285 35 q 483 80 400 35 l 483 345 q 466 439 483 409 q 403 479 449 469 l 403 491 q 465 486 437 487 q 533 484 493 485 m 16 479 l 16 491 q 151 484 77 485 l 151 158 q 162 55 151 81 q 196 7 174 27 q 130 37 160 10 q 100 146 100 62 l 100 333 q 83 435 100 404 q 16 479 66 465 m 431 576 l 383 576 l 217 779 l 326 779 l 431 576 z "},"û":{"ha":738,"x_min":16,"x_max":714,"o":"m 578 0 l 578 484 q 714 491 661 485 l 714 479 q 648 437 666 468 q 629 338 629 406 l 629 150 q 648 45 629 78 q 714 4 666 14 l 714 -8 q 646 -3 691 -5 q 578 0 600 0 m 533 484 l 533 0 q 481 -4 507 0 q 483 16 482 3 q 483 38 483 28 q 324 -8 396 -8 q 245 14 275 -8 q 205 69 214 36 q 196 163 196 104 l 196 484 q 252 487 216 484 q 248 446 249 473 q 246 411 248 427 l 246 148 q 265 61 246 86 q 342 35 285 35 q 483 80 400 35 l 483 345 q 466 439 483 409 q 403 479 449 469 l 403 491 q 465 486 437 487 q 533 484 493 485 m 16 479 l 16 491 q 151 484 77 485 l 151 158 q 162 55 151 81 q 196 7 174 27 q 130 37 160 10 q 100 146 100 62 l 100 333 q 83 435 100 404 q 16 479 66 465 m 370 713 l 216 576 l 168 576 l 331 779 l 410 779 l 573 576 l 525 576 l 370 713 z "},"ü":{"ha":738,"x_min":16,"x_max":714,"o":"m 578 0 l 578 484 q 714 491 661 485 l 714 479 q 648 437 666 468 q 629 338 629 406 l 629 150 q 648 45 629 78 q 714 4 666 14 l 714 -8 q 646 -3 691 -5 q 578 0 600 0 m 533 484 l 533 0 q 481 -4 507 0 q 483 16 482 3 q 483 38 483 28 q 324 -8 396 -8 q 245 14 275 -8 q 205 69 214 36 q 196 163 196 104 l 196 484 q 252 487 216 484 q 248 446 249 473 q 246 411 248 427 l 246 148 q 265 61 246 86 q 342 35 285 35 q 483 80 400 35 l 483 345 q 466 439 483 409 q 403 479 449 469 l 403 491 q 465 486 437 487 q 533 484 493 485 m 16 479 l 16 491 q 151 484 77 485 l 151 158 q 162 55 151 81 q 196 7 174 27 q 130 37 160 10 q 100 146 100 62 l 100 333 q 83 435 100 404 q 16 479 66 465 m 494 741 l 574 660 l 494 576 l 411 660 l 494 741 m 235 743 l 318 660 l 235 578 l 153 660 l 235 743 z "},"†":{"ha":543,"x_min":14,"x_max":529,"o":"m 345 588 l 345 484 l 439 484 q 479 488 469 484 q 513 511 492 493 l 529 511 q 452 438 508 438 l 440 438 q 406 439 437 439 l 345 439 l 320 -425 l 294 -425 l 294 818 q 324 820 302 819 q 406 827 356 822 l 406 818 q 351 675 357 798 l 347 608 q 345 588 345 596 m 221 -425 l 199 439 l 92 439 q 33 410 58 439 l 14 410 q 48 469 30 456 q 108 484 68 484 l 199 484 l 199 583 q 193 683 199 604 q 174 785 187 761 q 143 818 161 808 l 143 827 q 248 818 172 821 l 248 -425 l 221 -425 z "},"°":{"ha":550,"x_min":87,"x_max":463,"o":"m 161 552 q 194 472 161 506 q 275 437 227 437 q 356 471 322 437 q 389 552 389 505 q 356 633 389 600 q 275 667 323 667 q 195 633 228 667 q 161 552 161 600 m 87 552 q 141 684 87 628 q 275 741 195 741 q 408 686 353 741 q 463 552 463 630 q 408 420 463 475 q 275 364 353 364 q 141 420 195 364 q 87 552 87 477 z "},"¢":{"ha":622,"x_min":38,"x_max":591,"o":"m 163 443 q 94 244 94 379 q 153 50 94 115 q 68 130 97 73 q 38 244 38 187 q 55 331 38 289 q 94 396 71 373 q 163 443 118 420 m 254 77 l 413 448 q 376 452 391 452 q 245 399 296 452 q 194 251 194 347 q 254 77 194 147 m 172 -114 l 233 28 q 139 237 139 104 q 199 421 139 349 q 393 493 259 493 q 431 492 401 493 l 511 677 l 555 658 q 517 586 522 596 l 475 485 q 574 458 521 476 q 572 429 572 445 q 576 365 572 402 q 578 333 578 342 q 574 298 578 321 l 560 298 q 454 436 537 400 l 290 52 q 375 33 328 33 q 565 156 497 33 l 591 156 q 516 36 573 85 q 368 -14 458 -14 q 269 5 310 -14 l 184 -195 l 136 -176 q 172 -114 157 -150 z "},"£":{"ha":680,"x_min":28,"x_max":669,"o":"m 47 191 l 28 201 q 85 258 72 252 q 124 265 99 265 l 163 265 q 150 420 150 393 q 246 646 150 572 q 201 442 201 562 q 211 292 201 397 q 222 132 222 186 q 89 -164 222 -64 q 174 106 174 -46 q 167 222 174 157 l 127 222 q 84 217 96 222 q 47 191 68 211 m 93 -257 l 77 -241 q 232 -52 199 -136 q 266 146 266 33 q 254 305 266 197 q 245 443 245 384 q 308 663 245 582 q 462 743 370 743 q 564 705 524 743 q 603 617 603 667 q 593 564 603 594 l 574 568 q 575 592 575 591 q 543 669 575 636 q 459 703 509 703 q 340 633 385 703 q 295 439 295 563 q 304 326 295 400 q 310 265 310 272 l 389 265 q 464 272 446 265 q 502 304 482 278 l 519 296 q 479 232 494 241 q 419 222 464 222 l 313 222 q 315 164 315 186 q 208 -170 315 -39 q 340 -131 289 -131 q 439 -155 376 -131 q 537 -178 503 -178 q 669 -113 617 -178 q 611 -191 656 -162 q 515 -221 565 -221 q 410 -193 470 -221 q 325 -168 357 -168 q 240 -188 285 -168 q 294 -193 271 -188 q 378 -229 317 -200 q 509 -267 459 -267 q 614 -237 559 -267 q 472 -302 564 -302 q 409 -294 435 -302 q 327 -258 382 -286 q 204 -225 263 -225 q 93 -257 147 -225 z "},"§":{"ha":645,"x_min":41,"x_max":602,"o":"m 79 -273 l 89 -273 q 273 -425 141 -425 q 381 -386 337 -425 q 426 -290 426 -347 q 400 -206 426 -248 q 291 -111 374 -166 q 87 52 132 -5 q 41 185 41 110 q 116 328 41 284 q 85 212 85 256 q 106 121 85 162 q 161 47 128 78 q 311 -60 193 19 q 439 -171 399 -119 q 477 -283 477 -221 q 419 -413 477 -363 q 264 -463 361 -463 q 79 -425 176 -463 q 76 -354 76 -401 q 75 -315 76 -325 q 75 -295 75 -309 q 79 -273 75 -286 m 255 357 q 204 299 227 337 q 180 223 180 259 q 203 151 180 187 q 395 0 224 115 q 444 68 425 27 q 464 137 464 109 q 432 223 464 187 q 255 357 401 257 m 214 388 q 87 591 87 478 q 106 677 87 640 q 146 728 125 712 q 122 629 122 686 q 141 544 122 582 q 201 465 160 505 q 358 349 242 426 q 486 236 457 285 q 514 142 514 187 q 434 -30 514 48 q 540 -151 518 -103 q 561 -237 561 -198 q 543 -315 561 -277 q 496 -368 524 -355 q 522 -271 522 -326 q 499 -177 522 -221 q 437 -100 476 -134 q 258 33 396 -66 q 155 132 180 88 q 128 222 128 174 q 214 388 128 298 m 564 783 l 564 653 q 380 782 497 782 q 263 743 305 782 q 220 646 220 705 q 243 567 220 608 q 357 467 265 526 q 558 302 515 365 q 602 172 602 239 q 527 35 602 87 q 559 145 559 96 q 526 259 559 201 q 474 320 511 286 q 387 387 438 353 q 273 469 316 435 q 208 528 229 503 q 167 643 167 575 q 225 774 167 722 q 374 827 283 827 q 564 783 482 827 z "},"•":{"ha":694,"x_min":178,"x_max":517,"o":"m 517 486 q 468 366 517 416 q 348 316 418 316 q 229 366 279 316 q 178 486 178 416 q 229 606 178 555 q 348 655 278 655 q 468 606 418 655 q 517 486 517 556 z "},"¶":{"ha":724,"x_min":51,"x_max":686,"o":"m 182 318 q 51 502 51 374 q 179 690 51 629 q 111 501 111 602 q 182 318 111 407 m 597 -307 l 530 -307 l 530 715 q 686 723 590 715 l 686 711 q 608 661 630 704 q 585 526 585 618 l 585 -149 q 597 -307 585 -251 m 427 -307 l 355 -307 q 371 -140 371 -241 l 372 -71 l 371 291 q 223 352 283 291 q 163 505 163 414 q 218 655 163 587 q 398 723 273 723 q 427 721 410 723 l 427 -307 z "},"ß":{"ha":738,"x_min":24,"x_max":705,"o":"m 575 41 q 647 231 647 117 q 556 446 647 370 q 666 361 626 418 q 705 235 705 305 q 667 112 705 160 q 575 41 628 63 m 24 -8 l 24 4 q 87 50 71 18 q 104 152 104 80 l 104 614 q 125 722 104 682 q 210 795 146 761 q 155 622 155 731 l 155 0 q 24 -8 77 0 m 564 506 q 605 642 605 565 q 529 807 605 744 q 655 650 655 753 q 564 506 655 564 m 252 0 l 198 0 l 198 610 q 245 777 198 720 q 375 834 292 834 q 506 776 454 834 q 557 634 557 718 q 476 469 557 533 q 600 235 600 399 q 540 58 600 129 q 392 -12 479 -12 q 315 5 353 -12 l 315 64 q 399 39 357 39 q 505 92 461 39 q 549 224 549 143 q 503 389 549 333 q 370 465 458 444 q 504 625 504 503 q 468 745 504 697 q 373 791 433 791 q 299 764 330 791 q 258 698 267 736 q 249 585 249 656 l 249 97 q 252 0 249 44 z "},"®":{"ha":1114,"x_min":39,"x_max":1076,"o":"m 416 434 l 416 237 l 506 237 q 647 265 614 237 q 679 338 679 293 q 654 408 679 382 q 517 434 629 434 l 416 434 m 347 -56 l 347 490 l 574 490 q 712 449 665 490 q 759 344 759 408 q 724 247 759 291 q 597 190 688 202 q 686 129 656 168 q 724 63 698 113 q 779 -56 749 12 l 697 -56 q 584 142 625 102 q 447 180 543 180 l 416 180 l 416 -56 l 347 -56 m 1013 222 q 880 545 1013 412 q 557 677 747 677 q 236 544 370 677 q 102 222 102 409 q 236 -98 102 35 q 557 -233 370 -233 q 879 -98 745 -233 q 1013 222 1013 35 m 1076 222 q 924 -143 1076 9 q 557 -296 771 -296 q 191 -144 343 -296 q 39 222 39 8 q 192 589 39 436 q 557 741 344 741 q 924 589 770 741 q 1076 222 1076 435 z "},"©":{"ha":1114,"x_min":39,"x_max":1076,"o":"m 783 355 l 716 337 q 566 449 669 449 q 429 391 483 449 q 374 225 374 332 q 426 54 374 119 q 558 -13 478 -13 q 657 18 618 -13 q 726 126 696 50 l 787 104 q 559 -73 726 -73 q 374 12 446 -73 q 300 224 300 97 q 372 421 300 337 q 565 505 441 505 q 783 355 708 505 m 1013 222 q 880 545 1013 412 q 557 677 747 677 q 236 544 370 677 q 102 222 102 409 q 236 -98 102 35 q 557 -233 370 -233 q 879 -98 745 -233 q 1013 222 1013 35 m 1076 222 q 924 -143 1076 9 q 557 -296 771 -296 q 191 -144 343 -296 q 39 222 39 8 q 192 589 39 436 q 557 741 344 741 q 924 589 770 741 q 1076 222 1076 435 z "},"™":{"ha":1302,"x_min":137,"x_max":1124,"o":"m 632 167 l 632 721 l 736 721 l 874 278 l 1019 721 l 1124 721 l 1124 167 l 1062 167 l 1062 661 l 897 167 l 850 167 l 694 661 l 694 167 l 632 167 m 137 661 l 137 721 l 568 721 l 568 661 l 387 661 l 387 167 l 317 167 l 317 661 l 137 661 z "},"´":{"ha":463,"x_min":161,"x_max":374,"o":"m 374 779 l 209 576 l 161 576 l 266 779 l 374 779 z "},"¨":{"ha":463,"x_min":16,"x_max":437,"o":"m 357 741 l 437 660 l 357 576 l 274 660 l 357 741 m 98 743 l 181 660 l 98 578 l 16 660 l 98 743 z "},"≠":{"ha":926,"x_min":100,"x_max":827,"o":"m 100 377 l 100 437 l 508 437 l 650 799 l 701 799 l 562 437 l 827 437 l 827 377 l 538 377 l 439 123 l 827 123 l 827 63 l 416 63 l 273 -297 l 222 -297 l 364 63 l 100 63 l 100 123 l 387 123 l 486 377 l 100 377 z "},"Æ":{"ha":1143,"x_min":10,"x_max":1108,"o":"m 931 0 l 654 0 l 654 715 l 926 715 q 1050 723 1000 715 l 1059 723 q 1067 575 1060 638 l 1053 575 q 994 653 1027 637 q 883 669 959 669 l 723 669 q 709 521 709 620 l 709 397 l 878 397 q 968 413 941 397 q 1010 479 995 428 l 1023 479 q 1019 406 1023 460 q 1017 363 1017 372 q 1019 313 1017 345 q 1023 248 1023 261 l 1010 248 q 973 329 1000 306 q 875 351 946 351 l 709 351 l 709 177 q 725 50 709 90 l 871 50 q 1012 72 961 50 q 1096 157 1062 94 l 1108 153 q 1084 72 1101 117 q 1061 -8 1061 13 q 1046 -7 1053 -7 q 1023 -5 1040 -7 q 931 0 973 0 m 333 343 l 549 343 l 549 522 q 549 543 549 536 q 548 593 548 555 q 543 669 548 638 l 531 669 l 333 343 m 566 715 l 604 715 l 604 0 l 555 0 q 507 -5 540 0 q 460 -8 491 -7 l 460 4 q 550 171 550 41 q 549 199 550 182 l 549 293 l 303 293 l 233 179 q 189 68 189 106 q 248 4 189 18 l 248 -8 l 224 -8 q 175 -4 213 -8 q 120 0 136 0 q 79 -3 100 0 q 10 -8 28 -8 l 10 4 q 78 40 50 12 q 155 146 109 71 l 479 679 q 370 711 437 710 l 370 723 l 427 723 q 467 721 448 723 l 515 718 l 557 715 q 566 715 559 715 z "},"Ø":{"ha":0,"x_min":-201,"x_max":204,"o":"m 2 642 l 157 779 l 204 779 l 41 576 l -39 576 l -201 779 l -153 779 l 2 642 z "},"∞":{"ha":810,"x_min":14,"x_max":798,"o":"m 377 551 q 504 680 456 652 q 603 708 551 708 q 737 655 676 708 q 798 490 798 602 q 735 314 798 364 q 603 263 672 263 q 503 292 550 263 q 377 420 455 321 q 182 304 285 304 q 60 361 106 304 q 14 486 14 417 q 57 608 14 549 q 182 667 100 667 q 377 551 285 667 m 424 486 q 501 387 456 435 q 601 338 547 338 q 685 373 648 338 q 723 484 723 408 q 688 593 723 554 q 599 631 653 631 q 526 605 561 631 q 424 486 490 578 m 330 486 q 181 592 248 592 q 115 563 140 592 q 90 488 90 534 q 116 412 90 442 q 182 382 142 382 q 330 486 250 382 z "},"±":{"ha":926,"x_min":98,"x_max":827,"o":"m 98 -229 l 98 -170 l 827 -170 l 827 -229 l 98 -229 m 98 318 l 98 378 l 432 378 l 432 713 l 492 713 l 492 378 l 827 378 l 827 318 l 492 318 l 492 -15 l 432 -15 l 432 318 l 98 318 z "},"≤":{"ha":926,"x_min":99,"x_max":827,"o":"m 99 -244 l 99 -184 l 827 -184 l 827 -244 l 99 -244 m 826 99 l 826 34 l 100 342 l 100 395 l 826 703 l 826 637 l 178 369 l 826 99 z "},"≥":{"ha":926,"x_min":99,"x_max":827,"o":"m 99 -244 l 99 -184 l 827 -184 l 827 -244 l 99 -244 m 100 637 l 100 703 l 826 394 l 826 340 l 100 34 l 100 98 l 747 368 l 100 637 z "},"¥":{"ha":969,"x_min":3,"x_max":966,"o":"m 902 278 l 607 278 l 607 203 l 902 203 l 902 155 l 607 155 q 705 4 610 23 l 705 -8 q 635 -3 689 -8 q 552 0 589 0 l 552 361 l 213 715 q 399 723 332 715 l 399 711 q 359 673 359 699 q 371 635 359 652 q 440 553 384 615 l 583 403 l 718 559 q 762 654 762 612 q 715 711 762 700 l 715 723 q 765 719 716 723 q 847 715 827 715 q 966 723 897 715 l 966 711 q 817 600 873 681 q 808 587 811 591 l 607 353 l 607 326 l 902 326 l 902 278 m 443 155 l 143 155 l 143 203 l 443 203 l 443 278 l 143 278 l 143 326 l 443 326 l 227 555 q 3 711 107 681 l 3 723 q 146 715 60 718 l 500 342 l 500 0 q 347 -8 444 0 l 347 4 q 443 155 443 26 z "},"µ":{"ha":578,"x_min":85,"x_max":503,"o":"m 85 488 l 146 488 l 146 285 q 157 135 146 174 q 204 67 168 96 q 293 37 240 37 q 385 67 350 37 q 429 139 419 98 q 438 285 438 180 l 438 488 l 503 488 l 503 0 l 438 0 l 438 55 q 290 -11 382 -11 q 146 55 205 -11 l 146 -192 l 85 -192 l 85 488 z "},"∂":{"ha":680,"x_min":35,"x_max":657,"o":"m 286 772 l 195 812 q 306 963 238 914 q 439 1011 373 1011 q 598 917 539 1011 q 657 628 657 823 q 608 307 657 458 q 456 70 558 156 q 243 -17 354 -17 q 93 45 151 -17 q 35 218 35 107 q 98 429 35 332 q 282 575 160 525 q 579 627 405 625 q 541 860 578 796 q 440 924 503 924 q 286 772 343 924 m 576 540 q 334 494 413 532 q 206 373 255 457 q 157 205 157 289 q 194 111 157 146 q 273 76 230 76 q 462 191 370 76 q 576 540 553 306 z "},"∑":{"ha":990,"x_min":83,"x_max":940,"o":"m 94 1011 l 933 1011 l 933 900 l 263 900 l 675 374 l 235 -183 l 940 -183 l 940 -292 l 83 -292 l 83 -165 l 503 369 l 94 892 l 94 1011 z "},"∏":{"ha":1143,"x_min":109,"x_max":1033,"o":"m 109 1011 l 1033 1011 l 1033 -292 l 903 -292 l 903 893 l 240 893 l 240 -292 l 109 -292 l 109 1011 z "},"π":{"ha":868,"x_min":41,"x_max":843,"o":"m 41 721 l 843 721 l 843 614 l 733 614 l 733 0 l 605 0 l 605 614 l 277 614 l 277 0 l 149 0 l 149 614 l 41 614 l 41 721 z "},"∫":{"ha":380,"x_min":0,"x_max":380,"o":"m 136 643 l 145 930 q 163 1115 149 1063 q 191 1195 177 1167 q 235 1243 204 1223 q 295 1263 265 1263 q 356 1240 332 1263 q 380 1191 380 1217 q 362 1141 380 1161 q 317 1120 345 1120 q 266 1145 294 1120 q 239 1158 250 1158 q 212 1116 212 1158 q 218 1017 212 1086 q 243 553 243 739 q 235 247 243 519 q 182 -88 227 -26 q 81 -149 138 -149 q 24 -127 47 -149 q 0 -67 0 -106 q 17 -19 0 -38 q 61 0 34 0 q 109 -22 88 0 q 141 -43 127 -43 q 168 -2 168 -43 q 161 79 168 26 q 136 643 136 293 z "},"ª":{"ha":492,"x_min":29,"x_max":474,"o":"m 107 653 q 79 563 79 617 q 111 473 79 514 q 52 507 75 480 q 29 566 29 533 q 52 621 29 598 q 107 653 73 644 m 474 469 l 474 458 q 366 466 418 464 l 366 728 q 338 817 366 798 q 397 784 382 807 q 412 698 412 761 l 412 568 q 423 494 412 512 q 474 469 433 477 m 280 512 l 280 642 q 258 645 270 645 q 192 621 216 645 q 169 563 169 597 q 186 513 169 533 q 232 493 204 493 q 280 512 256 493 m 75 746 l 56 760 q 208 830 121 830 q 303 800 279 830 q 328 705 328 769 l 328 466 q 280 458 307 465 l 280 486 q 218 458 249 458 q 149 488 178 458 q 120 564 120 517 q 155 648 120 615 q 240 680 191 680 q 280 674 257 680 l 280 713 q 258 777 280 764 q 203 791 237 791 q 75 746 135 791 z "},"º":{"ha":550,"x_min":24,"x_max":526,"o":"m 131 488 q 53 549 80 503 q 24 642 24 595 q 54 738 24 690 q 132 807 84 785 q 77 646 77 745 q 131 488 77 543 m 412 479 q 471 644 471 539 q 414 814 471 747 q 526 653 526 758 q 412 479 526 549 m 176 640 q 273 505 176 505 q 343 541 315 505 q 370 645 370 576 q 273 785 370 785 q 176 640 176 785 m 124 640 q 169 783 124 736 q 275 830 213 830 q 377 786 333 830 q 421 642 421 742 q 376 503 421 548 q 271 458 330 458 q 164 509 204 458 q 124 640 124 559 z "},"Ω":{"ha":1099,"x_min":102,"x_max":1017,"o":"m 353 109 q 118 550 118 245 q 169 781 118 671 q 321 955 219 890 q 564 1019 422 1019 q 885 884 766 1019 q 1003 545 1003 748 q 770 109 1003 262 l 1017 113 l 1017 0 l 627 0 l 627 120 q 800 283 739 171 q 862 527 862 396 q 787 797 862 684 q 563 909 711 909 q 336 797 411 909 q 262 533 262 686 q 325 274 262 382 q 494 122 388 167 l 494 0 l 102 0 l 102 114 l 353 109 z "},"æ":{"ha":941,"x_min":41,"x_max":912,"o":"m 133 251 l 133 248 q 92 136 92 198 q 136 12 92 60 q 41 135 41 45 q 133 251 41 218 m 912 277 l 854 277 q 795 452 852 380 q 912 277 891 416 m 505 325 l 743 325 q 628 450 725 450 q 505 325 522 450 m 860 168 l 895 168 q 658 -12 829 -12 q 506 47 566 -12 q 444 221 444 106 l 444 281 q 437 414 444 380 q 406 475 430 449 q 486 418 460 467 q 627 494 539 494 q 751 441 700 494 q 809 277 802 387 l 500 277 q 498 233 498 252 q 552 82 498 125 q 670 38 606 38 q 780 71 728 38 q 860 168 831 104 m 347 168 l 347 234 q 309 239 326 239 q 228 208 258 239 q 197 130 197 177 q 221 63 197 91 q 283 36 244 36 q 357 75 327 36 q 347 168 347 115 m 94 381 l 77 397 q 267 494 151 494 q 350 472 319 494 q 389 418 380 450 q 398 328 398 388 l 398 223 q 492 4 398 67 l 492 -8 q 389 0 456 -1 q 366 44 373 24 q 264 -8 322 -8 q 176 32 212 -8 q 141 129 141 71 q 186 236 141 193 q 304 280 230 280 q 347 277 322 280 l 347 340 q 327 422 347 395 q 251 449 307 449 q 94 381 164 449 z "},"ø":{"ha":694,"x_min":42,"x_max":651,"o":"m 42 8 l 111 71 q 43 246 43 134 q 159 450 43 390 q 97 243 97 379 q 159 35 97 104 q 146 43 153 37 l 123 24 q 77 -31 103 5 l 42 8 m 481 345 l 219 109 q 346 35 254 35 q 452 81 411 35 q 492 250 492 127 q 481 345 492 304 m 206 157 l 465 388 q 345 455 429 455 q 200 241 200 455 q 206 157 200 191 m 143 237 q 197 433 143 368 q 346 498 251 498 q 494 436 439 498 q 549 250 549 374 q 488 45 549 103 q 343 -12 426 -12 q 200 51 257 -12 q 143 237 143 113 m 644 492 l 571 426 q 651 248 651 358 q 533 42 651 111 q 595 236 595 112 q 533 450 595 391 l 568 482 l 572 486 q 610 530 596 507 l 644 492 z "},"¿":{"ha":405,"x_min":16,"x_max":376,"o":"m 109 75 l 113 68 q 68 -82 68 9 q 113 -223 68 -165 q 16 -83 16 -196 q 33 0 16 -39 q 109 75 51 38 m 200 227 l 235 227 q 232 130 235 152 q 205 47 228 111 q 176 -87 176 -31 q 261 -201 176 -201 q 332 -168 305 -201 q 358 -85 358 -134 l 374 -85 q 376 -117 376 -102 q 374 -161 376 -136 q 371 -201 371 -187 q 372 -220 371 -210 q 250 -249 306 -249 q 155 -205 196 -249 q 113 -83 113 -162 q 154 57 113 -22 q 191 144 183 115 q 200 227 200 174 m 215 304 l 119 399 l 151 431 l 247 336 l 215 304 m 279 368 l 182 463 l 214 494 l 311 399 l 279 368 z "},"¡":{"ha":290,"x_min":14,"x_max":275,"o":"m 70 -59 l 96 222 l 123 222 l 123 -237 q 14 -245 41 -243 l 14 -234 q 47 -196 35 -223 q 70 -59 60 -170 m 168 -237 l 168 222 l 194 222 l 223 -89 q 241 -191 230 -159 q 275 -234 251 -221 l 275 -245 q 230 -241 271 -245 q 168 -237 190 -238 m 79 429 l 178 330 l 145 296 l 45 396 l 79 429 m 144 494 l 244 395 l 210 361 l 111 461 l 144 494 z "},"¬":{"ha":926,"x_min":99,"x_max":827,"o":"m 99 385 l 99 445 l 827 445 l 827 55 l 768 55 l 768 385 l 99 385 z "},"√":{"ha":767,"x_min":59,"x_max":764,"o":"m 714 1267 l 764 1267 l 553 -53 l 216 640 l 82 578 l 59 621 l 263 724 l 538 165 l 714 1267 z "},"ƒ":{"ha":709,"x_min":8,"x_max":701,"o":"m 202 392 l 184 403 q 241 462 228 453 q 277 470 252 470 l 311 470 l 349 638 q 469 803 382 788 q 402 654 425 761 l 212 -201 q 127 -384 182 -336 q 8 -446 73 -431 l 8 -427 q 102 -357 66 -406 q 161 -204 138 -309 l 300 422 l 274 422 q 237 419 245 422 q 202 392 229 416 m 600 509 l 616 499 q 574 435 593 446 q 521 422 555 422 l 448 422 l 317 -166 q 279 -278 301 -235 q 193 -365 257 -323 q 271 -151 233 -321 l 435 581 q 517 788 472 749 q 607 827 560 827 q 694 804 658 827 q 701 663 697 678 l 682 663 q 653 747 677 715 q 595 778 629 778 q 498 644 528 778 l 459 470 l 495 470 q 562 477 547 470 q 600 509 577 483 z "},"≈":{"ha":911,"x_min":94,"x_max":818,"o":"m 818 155 l 818 84 q 626 1 718 1 q 550 15 591 1 q 411 74 508 29 q 290 111 330 111 q 94 22 208 111 l 94 91 q 289 172 200 172 q 483 107 347 172 q 625 62 578 62 q 818 155 711 62 m 818 482 l 818 411 q 626 328 718 328 q 556 340 593 328 q 411 401 516 352 q 290 439 330 439 q 94 349 207 439 l 94 418 q 289 498 200 498 q 483 435 349 498 q 625 389 581 389 q 818 482 711 389 z "},"∆":{"ha":854,"x_min":20,"x_max":833,"o":"m 833 0 l 20 0 l 446 941 l 833 0 m 673 56 l 403 711 l 104 56 l 673 56 z "},"«":{"ha":694,"x_min":38,"x_max":656,"o":"m 391 261 l 587 64 l 553 31 q 525 60 533 52 q 507 79 509 78 q 505 82 506 81 q 501 85 503 83 l 430 157 q 356 227 401 186 l 391 261 m 73 261 l 269 64 l 235 31 q 206 60 209 58 q 189 79 191 77 q 183 85 185 82 l 112 157 q 38 227 83 186 l 73 261 m 656 134 l 622 98 l 425 295 l 526 397 q 532 402 529 400 q 595 469 540 410 l 633 431 q 602 403 613 414 l 570 371 q 564 366 568 370 l 493 295 l 602 185 l 609 178 l 620 168 q 640 150 629 159 q 656 134 650 140 m 338 134 l 303 98 l 106 295 l 208 397 q 210 400 209 399 q 214 402 212 401 q 277 469 220 408 l 315 431 q 284 403 295 414 l 251 371 q 248 369 250 370 q 245 366 247 368 l 174 295 l 283 185 l 291 178 l 302 168 q 322 150 311 159 q 338 134 332 140 z "},"»":{"ha":694,"x_min":38,"x_max":656,"o":"m 75 332 l 38 367 l 73 401 l 270 205 l 168 102 q 163 98 166 100 q 99 31 156 92 l 61 68 q 92 97 81 86 l 125 129 q 128 131 127 130 q 131 134 130 132 l 202 205 l 93 315 l 85 321 l 75 332 m 356 367 l 391 401 l 588 205 l 487 102 q 485 100 486 102 q 481 98 483 99 q 418 31 473 92 l 380 68 q 411 97 391 78 l 444 129 q 449 134 446 130 l 520 205 l 411 315 l 404 321 l 393 332 q 375 350 384 341 q 356 367 366 359 m 304 239 l 107 435 l 142 469 q 170 439 168 442 q 187 421 185 422 q 193 416 190 419 l 264 344 q 338 273 288 320 l 304 239 m 622 239 l 425 435 l 460 469 q 488 439 477 452 q 499 428 494 433 q 505 421 505 422 q 509 418 507 420 q 512 416 511 416 l 583 344 q 656 273 610 317 l 622 239 z "},"…":{"ha":1389,"x_min":134,"x_max":1255,"o":"m 134 81 l 168 116 l 266 20 l 232 -15 l 134 81 m 1060 81 l 1095 116 l 1192 20 l 1158 -15 l 1060 81 m 597 81 l 631 116 l 729 20 l 694 -15 l 597 81 m 197 144 l 231 179 l 329 83 l 295 48 l 197 144 m 1123 144 l 1158 179 l 1255 83 l 1221 48 l 1123 144 m 661 144 l 694 179 l 792 83 l 758 48 l 661 144 z "}," ":{"ha":340,"x_min":0,"x_max":0,"o":""},"À":{"ha":941,"x_min":21,"x_max":925,"o":"m 789 0 l 447 715 l 513 715 q 551 626 527 680 q 582 557 578 568 q 588 543 585 551 l 747 213 q 925 4 831 41 l 925 -8 q 789 0 833 0 m 305 341 l 510 341 l 412 547 l 305 341 m 595 164 l 534 290 l 279 290 l 214 164 q 211 155 214 164 q 201 136 210 155 q 186 77 186 107 q 243 4 186 26 l 243 -8 q 203 -5 232 -8 q 132 0 163 0 q 60 -5 102 0 q 21 -8 31 -8 l 21 4 q 157 161 96 42 l 382 599 q 311 680 356 651 q 205 711 266 708 l 205 723 l 229 723 q 317 719 261 723 q 393 715 375 715 l 735 0 q 577 -8 669 -1 l 577 4 q 629 60 629 13 q 595 164 629 94 m 541 782 l 494 782 l 328 985 l 436 985 l 541 782 z "},"Ã":{"ha":941,"x_min":21,"x_max":925,"o":"m 789 0 l 447 715 l 513 715 q 551 626 527 680 q 582 557 578 568 q 588 543 585 551 l 747 213 q 925 4 831 41 l 925 -8 q 789 0 833 0 m 305 341 l 510 341 l 412 547 l 305 341 m 595 164 l 534 290 l 279 290 l 214 164 q 211 155 214 164 q 201 136 210 155 q 186 77 186 107 q 243 4 186 26 l 243 -8 q 203 -5 232 -8 q 132 0 163 0 q 60 -5 102 0 q 21 -8 31 -8 l 21 4 q 157 161 96 42 l 382 599 q 311 680 356 651 q 205 711 266 708 l 205 723 l 229 723 q 317 719 261 723 q 393 715 375 715 l 735 0 q 577 -8 669 -1 l 577 4 q 629 60 629 13 q 595 164 629 94 m 632 937 l 665 937 q 528 816 627 816 q 393 859 492 816 q 323 876 350 876 q 238 816 264 876 l 206 816 q 340 938 242 938 q 492 891 376 938 q 548 877 526 877 q 632 937 610 877 z "},"Õ":{"ha":897,"x_min":35,"x_max":862,"o":"m 722 70 q 795 372 795 170 q 722 650 795 551 q 862 365 862 567 q 722 70 862 165 m 175 651 q 100 356 100 536 q 172 74 100 193 q 35 363 35 164 q 175 651 35 567 m 682 360 q 446 685 682 685 q 215 352 215 685 q 449 39 215 39 q 682 360 682 39 m 746 361 q 708 150 746 236 q 603 24 671 64 q 448 -18 536 -18 q 229 83 307 -18 q 152 361 152 184 q 231 644 152 545 q 446 741 309 741 q 666 644 585 741 q 746 361 746 547 m 651 937 l 684 937 q 547 816 646 816 q 412 859 511 816 q 342 876 369 876 q 257 816 283 876 l 225 816 q 359 938 261 938 q 511 891 395 938 q 567 877 545 877 q 651 937 629 877 z "},"Œ":{"ha":1158,"x_min":42,"x_max":1131,"o":"m 168 90 q 42 366 42 183 q 82 528 42 456 q 168 633 121 600 q 106 356 106 512 q 168 90 106 191 m 939 0 l 694 0 l 694 715 l 913 715 q 1078 723 1004 715 q 1082 623 1078 669 q 1084 577 1084 597 l 1072 577 q 1023 650 1055 631 q 913 668 989 668 l 763 668 q 750 564 750 621 l 750 398 l 861 398 q 980 414 947 398 q 1031 481 1013 429 l 1042 481 q 1038 374 1038 380 q 1041 302 1038 348 q 1043 249 1043 267 l 1029 249 q 1000 326 1024 300 q 888 351 974 351 l 750 351 l 750 175 q 763 50 750 89 l 905 50 q 1037 71 994 50 q 1115 156 1080 91 l 1131 156 q 1113 100 1124 133 q 1084 -8 1091 37 q 939 0 987 0 m 578 663 q 468 674 528 674 q 272 593 326 674 q 218 349 218 511 q 269 127 218 210 q 479 43 320 43 q 584 55 540 43 q 589 162 589 87 l 589 527 q 578 663 589 626 m 605 715 l 644 715 l 644 0 l 588 0 q 524 -5 575 0 q 456 -8 481 -8 q 155 353 155 -8 q 223 627 155 530 q 460 723 290 723 q 559 717 488 723 q 605 715 603 715 z "},"œ":{"ha":1099,"x_min":41,"x_max":1067,"o":"m 151 39 q 66 131 92 73 q 41 240 41 190 q 66 349 41 290 q 151 441 92 406 q 96 240 96 368 q 109 130 96 180 q 151 39 123 79 m 1067 272 l 1011 272 q 950 451 1002 395 q 1067 272 1048 413 m 199 222 q 343 30 199 30 q 452 81 413 30 q 492 231 492 132 q 348 447 492 447 q 239 399 279 447 q 199 222 199 351 m 142 223 q 200 437 142 382 q 349 491 258 491 q 549 240 549 491 q 491 43 549 100 q 347 -14 433 -14 q 142 223 142 -14 m 659 323 l 898 323 q 859 416 891 384 q 781 446 828 446 q 659 323 680 446 m 966 272 l 652 272 q 668 146 652 195 q 728 69 683 99 q 831 39 772 39 q 1016 164 956 39 l 1049 164 q 817 -14 989 -14 q 618 117 677 -14 q 542 43 593 63 q 593 238 593 121 q 539 441 593 368 q 618 367 591 418 q 781 491 668 491 q 905 439 854 491 q 966 272 954 388 z "},"–":{"ha":694,"x_min":-8,"x_max":703,"o":"m -8 207 l -8 270 l 703 270 l 703 207 l -8 207 z "},"—":{"ha":1389,"x_min":-8,"x_max":1397,"o":"m -8 207 l -8 270 l 1397 270 l 1397 207 l -8 207 z "},"“":{"ha":521,"x_min":40,"x_max":481,"o":"m 172 413 l 138 379 l 40 475 l 74 509 l 172 413 m 418 413 l 384 379 l 286 475 l 320 509 l 418 413 m 193 517 l 235 476 l 201 442 l 98 544 q 147 675 130 646 q 195 728 163 702 l 218 708 q 161 593 161 654 q 193 517 161 549 m 439 517 l 481 476 l 447 442 l 344 544 q 393 675 376 646 q 441 728 410 702 l 464 708 q 408 593 408 654 q 439 517 408 549 z "},"”":{"ha":521,"x_min":40,"x_max":481,"o":"m 81 590 l 40 631 l 74 665 l 177 563 q 128 433 146 461 q 80 379 111 404 l 57 399 q 113 514 113 453 q 81 590 113 558 m 328 590 l 286 631 l 320 665 l 423 563 q 374 433 392 461 q 326 379 357 404 l 303 399 q 359 514 359 453 q 328 590 359 558 m 103 694 l 137 728 l 235 631 l 201 597 l 103 694 m 349 694 l 383 728 l 481 631 l 447 597 l 349 694 z "},"‘":{"ha":275,"x_min":40,"x_max":235,"o":"m 172 413 l 138 379 l 40 475 l 74 509 l 172 413 m 193 517 l 235 476 l 201 442 l 98 544 q 147 675 130 646 q 195 728 163 702 l 218 708 q 161 593 161 654 q 193 517 161 549 z "},"’":{"ha":275,"x_min":40,"x_max":235,"o":"m 81 590 l 40 631 l 74 665 l 177 563 q 128 433 146 461 q 80 379 111 404 l 57 399 q 113 514 113 453 q 81 590 113 558 m 103 694 l 137 728 l 235 631 l 201 597 l 103 694 z "},"÷":{"ha":926,"x_min":99,"x_max":827,"o":"m 504 -27 q 492 -57 504 -45 q 462 -69 479 -69 q 432 -57 444 -69 q 420 -27 420 -45 q 432 3 420 -11 q 462 15 444 15 q 492 3 479 15 q 504 -27 504 -11 m 99 220 l 99 278 l 827 278 l 827 220 l 99 220 m 419 534 q 431 561 419 550 q 462 572 444 572 q 491 560 479 572 q 503 531 503 547 q 491 501 503 514 q 462 488 479 488 q 432 502 444 488 q 419 534 419 515 z "},"◊":{"ha":686,"x_min":32,"x_max":656,"o":"m 372 964 l 656 481 l 372 0 l 297 0 l 32 481 l 297 964 l 372 964 m 336 899 l 105 481 l 336 64 l 579 481 l 336 899 z "},"ÿ":{"ha":752,"x_min":3,"x_max":749,"o":"m 433 -258 l 433 -271 l 220 -314 l 382 0 l 153 355 q 3 479 80 467 l 3 491 q 126 479 45 486 l 438 0 l 367 -138 q 345 -209 345 -182 q 368 -246 345 -233 q 414 -260 391 -260 q 433 -258 417 -260 m 611 334 l 463 50 l 182 479 q 334 491 286 485 l 334 479 q 285 431 285 465 q 314 363 285 409 l 456 144 l 552 328 q 584 418 584 392 q 517 479 584 462 l 517 491 q 557 488 515 491 q 644 484 612 484 q 749 491 688 484 l 749 479 q 611 334 669 448 m 542 741 l 623 660 l 542 576 l 459 660 l 542 741 m 283 743 l 366 660 l 283 578 l 201 660 l 283 743 z "},"Ÿ":{"ha":969,"x_min":3,"x_max":966,"o":"m 147 715 l 499 342 l 499 0 l 483 0 q 347 -8 424 0 l 347 4 q 417 49 391 14 q 442 178 442 82 l 442 326 l 227 554 q 3 711 103 684 l 3 723 q 125 715 60 715 l 147 715 m 551 0 l 551 361 l 212 715 l 231 715 q 398 723 312 715 l 398 711 q 358 673 358 699 q 439 553 358 637 l 583 403 l 717 559 q 762 653 762 612 q 715 711 762 700 l 715 723 q 798 718 731 723 q 846 715 825 715 q 966 723 858 715 l 966 711 q 883 669 915 696 q 813 595 852 643 q 804 583 811 591 l 606 353 l 606 180 q 704 4 606 24 l 704 -8 q 576 0 580 0 l 551 0 m 663 947 l 743 866 l 663 783 l 580 866 l 663 947 m 404 949 l 487 866 l 404 785 l 321 866 l 404 949 z "},"∕":{"ha":176,"x_min":-260,"x_max":435,"o":"m -181 -28 l -260 -28 q -222 14 -239 -8 q -198 42 -202 38 q -191 50 -193 47 l 313 761 q 341 804 332 787 l 357 827 l 435 827 q 353 728 405 797 l 347 720 l -121 54 q -128 45 -121 54 q -181 -28 -143 27 z "},"€":{"ha":681,"x_min":22,"x_max":657,"o":"m 657 155 q 575 31 635 75 q 436 -14 515 -14 q 262 65 319 -14 q 204 249 204 144 q 271 444 204 372 q 457 515 338 515 q 639 482 551 515 l 637 452 q 640 404 637 435 q 643 357 643 373 q 639 322 643 339 l 625 322 q 560 436 608 397 q 440 476 511 476 q 333 439 378 476 q 269 338 288 403 l 482 338 l 468 289 l 260 289 l 260 262 q 261 229 260 239 l 482 229 l 468 180 l 269 180 q 331 69 287 109 q 439 29 376 29 q 631 155 560 29 l 657 155 m 229 467 q 158 257 158 401 q 218 50 158 116 q 114 180 148 79 l 22 180 l 36 229 l 104 229 l 103 257 q 106 289 103 267 l 22 289 l 36 338 l 115 338 q 229 467 141 429 z "},"‹":{"ha":376,"x_min":38,"x_max":338,"o":"m 73 261 l 269 64 l 235 31 q 206 60 209 58 q 189 79 191 77 q 183 85 185 82 l 112 157 q 38 227 83 186 l 73 261 m 338 134 l 303 98 l 106 295 l 208 397 q 210 400 209 399 q 214 402 212 401 q 277 469 220 408 l 315 431 q 284 403 295 414 l 251 371 q 248 369 250 370 q 245 366 247 368 l 174 295 l 283 185 l 291 178 l 302 168 q 322 150 311 159 q 338 134 332 140 z "},"›":{"ha":376,"x_min":38,"x_max":338,"o":"m 75 332 l 38 367 l 73 401 l 270 205 l 168 102 q 163 98 166 100 q 99 31 156 92 l 61 68 q 92 97 81 86 l 125 129 q 128 131 127 130 q 131 134 130 132 l 202 205 l 93 315 l 85 321 l 75 332 m 304 239 l 107 435 l 142 469 q 170 439 168 442 q 187 421 185 422 q 193 416 190 419 l 264 344 q 338 273 288 320 l 304 239 z "},"":{"ha":795,"x_min":16,"x_max":787,"o":"m 608 164 l 608 484 l 658 484 l 658 167 q 663 82 658 105 q 686 40 667 58 q 734 23 705 23 q 787 37 752 23 l 787 20 q 709 -9 752 -9 q 632 31 656 -9 q 608 164 608 71 m 27 401 l 16 421 q 61 472 45 459 q 95 484 75 484 l 132 484 l 132 572 q 155 699 132 662 q 225 760 176 736 q 181 562 181 713 l 181 0 q 62 -8 119 -1 l 62 4 q 118 47 104 16 q 132 157 132 79 l 132 437 l 95 437 q 27 401 60 437 m 511 164 l 511 437 l 275 437 l 275 161 q 292 48 275 81 q 361 4 308 16 l 361 -8 q 225 0 309 -1 l 225 517 q 239 695 225 641 q 307 788 252 748 q 442 827 361 827 q 608 800 474 827 q 614 653 608 759 l 596 653 q 440 780 559 780 q 275 594 275 780 l 275 484 l 562 484 l 562 172 q 570 63 562 97 q 602 0 576 31 q 533 51 555 13 q 511 164 511 89 z "},"":{"ha":795,"x_min":24,"x_max":783,"o":"m 37 405 l 24 416 q 68 472 49 460 q 114 484 87 484 l 134 484 l 134 584 q 160 732 134 684 q 245 799 186 781 q 199 732 216 771 q 182 591 182 696 l 182 0 q 124 -3 161 0 q 68 -8 87 -5 l 68 4 q 121 50 108 22 q 134 149 134 78 l 134 438 l 109 438 q 37 405 68 438 m 783 25 l 783 7 q 706 -14 741 -14 q 606 154 606 -14 l 606 823 l 664 827 q 656 690 656 786 l 656 130 q 737 16 656 16 q 783 25 760 16 m 561 823 l 561 172 q 572 45 561 76 q 615 -6 583 14 q 536 44 559 5 q 512 172 512 82 l 512 637 q 508 757 512 722 q 488 810 504 791 l 488 827 q 561 823 535 824 m 229 0 l 229 572 q 242 709 229 656 q 300 794 255 760 q 406 827 343 827 q 470 812 444 827 q 477 668 471 728 l 457 668 q 371 771 431 771 q 302 728 326 771 q 277 612 277 684 l 277 484 l 329 484 q 370 489 357 484 q 406 516 382 494 l 420 506 q 374 444 387 448 q 329 438 360 438 l 277 438 l 277 154 q 298 43 277 69 q 364 4 319 17 l 364 -8 q 302 -3 345 -5 q 229 0 258 0 z "},"‡":{"ha":551,"x_min":18,"x_max":533,"o":"m 349 482 l 430 482 q 486 488 470 482 q 516 510 503 494 l 533 510 q 499 449 515 459 q 457 438 484 438 l 349 438 q 343 201 343 274 q 349 -35 343 208 l 430 -35 q 483 -30 467 -35 q 516 0 497 -25 l 533 -12 q 500 -69 519 -58 q 430 -81 481 -81 l 349 -81 q 357 -283 351 -201 q 372 -372 362 -350 q 408 -416 381 -394 q 393 -425 398 -423 l 350 -420 q 300 -416 309 -420 l 300 817 q 408 827 368 817 l 408 817 q 366 750 377 805 q 349 482 353 692 m 204 438 l 108 438 q 61 434 71 438 q 36 410 52 429 l 18 410 q 49 467 30 452 q 108 482 68 482 l 204 482 q 188 750 199 707 q 145 817 177 793 l 145 827 q 254 817 192 817 l 254 -416 q 204 -420 246 -418 l 163 -424 q 145 -416 155 -422 q 187 -352 176 -399 q 204 -81 198 -308 l 125 -81 q 66 -85 78 -81 q 36 -109 54 -90 l 18 -109 q 50 -51 30 -66 q 108 -35 70 -35 l 204 -35 q 208 201 208 193 q 204 438 208 281 z "},"∙":{"ha":275,"x_min":40,"x_max":235,"o":"m 40 246 l 74 280 l 172 184 l 138 150 l 40 246 m 103 309 l 137 343 l 235 247 l 201 213 l 103 309 z "},"‚":{"ha":275,"x_min":40,"x_max":235,"o":"m 81 41 l 40 81 l 74 116 l 177 14 q 128 -116 145 -88 q 80 -170 111 -144 l 57 -150 q 113 -35 113 -97 q 81 41 113 9 m 103 144 l 137 179 l 235 83 l 201 48 l 103 144 z "},"„":{"ha":521,"x_min":40,"x_max":481,"o":"m 81 41 l 40 81 l 74 116 l 177 14 q 128 -116 145 -88 q 80 -170 111 -144 l 57 -150 q 113 -35 113 -97 q 81 41 113 9 m 328 41 l 286 81 l 320 116 l 423 14 q 374 -116 391 -88 q 326 -170 357 -144 l 303 -150 q 359 -35 359 -97 q 328 41 359 9 m 103 144 l 137 179 l 235 83 l 201 48 l 103 144 m 349 144 l 383 179 l 481 83 l 447 48 l 349 144 z "},"‰":{"ha":1571,"x_min":26,"x_max":1546,"o":"m 1150 9 q 1073 70 1101 24 q 1044 163 1044 116 q 1074 259 1044 213 q 1152 328 1102 304 q 1097 168 1097 266 q 1150 9 1097 63 m 599 9 q 521 70 549 24 q 492 163 492 116 q 522 259 492 213 q 600 328 550 304 q 545 168 545 266 q 599 9 545 64 m 1432 0 q 1491 165 1491 62 q 1434 335 1491 272 q 1546 174 1546 279 q 1432 0 1546 71 m 880 0 q 939 165 939 62 q 882 335 939 272 q 994 174 994 279 q 880 0 994 71 m 1196 161 q 1292 26 1196 26 q 1362 62 1335 26 q 1390 166 1390 98 q 1292 307 1390 307 q 1196 161 1196 307 m 1144 161 q 1188 304 1144 256 q 1296 352 1232 352 q 1398 307 1354 352 q 1441 164 1441 262 q 1398 28 1441 77 q 1291 -20 1356 -20 q 1184 31 1224 -20 q 1144 161 1144 81 m 644 161 q 740 26 644 26 q 811 62 783 26 q 838 166 838 97 q 741 307 838 307 q 644 161 644 307 m 592 161 q 636 304 592 256 q 744 352 680 352 q 846 307 803 352 q 889 164 889 262 q 844 25 889 71 q 739 -20 798 -20 q 632 31 672 -20 q 592 161 592 81 m 132 413 q 54 474 81 429 q 26 568 26 520 q 56 664 26 616 q 134 732 85 711 q 78 572 78 670 q 132 413 78 469 m 413 404 q 473 569 473 465 q 416 739 473 677 q 528 578 528 684 q 413 404 528 474 m 251 0 l 172 0 q 211 42 198 26 l 234 71 q 241 79 239 76 l 735 688 q 784 755 770 732 l 862 755 q 769 647 824 715 l 311 83 q 251 0 285 49 m 178 565 q 274 430 178 430 q 345 466 317 430 q 372 570 372 501 q 274 711 372 711 q 178 565 178 711 m 125 566 q 170 709 125 661 q 276 756 214 756 q 382 708 341 756 q 422 568 422 661 q 380 433 422 481 q 273 384 337 384 q 165 435 205 384 q 125 566 125 485 z "},"Â":{"ha":941,"x_min":21,"x_max":925,"o":"m 789 0 l 447 715 l 513 715 q 551 626 527 680 q 582 557 578 568 q 588 543 585 551 l 747 213 q 925 4 831 41 l 925 -8 q 789 0 833 0 m 305 341 l 510 341 l 412 547 l 305 341 m 595 164 l 534 290 l 279 290 l 214 164 q 211 155 214 164 q 201 136 210 155 q 186 77 186 107 q 243 4 186 26 l 243 -8 q 203 -5 232 -8 q 132 0 163 0 q 60 -5 102 0 q 21 -8 31 -8 l 21 4 q 157 161 96 42 l 382 599 q 311 680 356 651 q 205 711 266 708 l 205 723 l 229 723 q 317 719 261 723 q 393 715 375 715 l 735 0 q 577 -8 669 -1 l 577 4 q 629 60 629 13 q 595 164 629 94 m 414 920 l 260 782 l 212 782 l 376 985 l 455 985 l 618 782 l 570 782 l 414 920 z "},"Ê":{"ha":738,"x_min":50,"x_max":702,"o":"m 172 715 l 195 715 l 195 0 l 150 0 q 50 -8 126 0 l 50 4 q 105 39 86 14 q 132 98 125 64 q 139 247 139 133 l 139 531 q 113 666 139 629 q 50 711 86 703 l 50 723 q 172 715 91 720 m 515 0 l 243 0 l 243 715 l 441 715 q 651 723 496 715 q 650 692 650 703 q 653 629 650 679 q 655 593 655 596 l 655 576 l 644 576 q 588 652 619 635 q 471 668 557 668 l 363 668 q 315 665 337 668 q 301 555 303 642 l 300 509 l 300 398 l 446 398 q 556 412 529 398 q 600 480 583 427 l 614 480 q 609 374 609 419 q 613 300 609 346 q 616 246 614 286 l 602 246 q 566 328 595 306 q 470 351 535 351 l 300 351 l 300 203 q 309 53 300 117 q 370 49 338 49 l 473 49 q 600 68 557 49 q 688 155 645 87 l 702 155 q 680 83 694 124 q 653 -8 661 31 q 515 0 576 0 m 370 920 l 216 782 l 168 782 l 332 985 l 411 985 l 574 782 l 526 782 l 370 920 z "},"Á":{"ha":941,"x_min":21,"x_max":925,"o":"m 789 0 l 447 715 l 513 715 q 551 626 527 680 q 582 557 578 568 q 588 543 585 551 l 747 213 q 925 4 831 41 l 925 -8 q 789 0 833 0 m 305 341 l 510 341 l 412 547 l 305 341 m 595 164 l 534 290 l 279 290 l 214 164 q 211 155 214 164 q 201 136 210 155 q 186 77 186 107 q 243 4 186 26 l 243 -8 q 203 -5 232 -8 q 132 0 163 0 q 60 -5 102 0 q 21 -8 31 -8 l 21 4 q 157 161 96 42 l 382 599 q 311 680 356 651 q 205 711 266 708 l 205 723 l 229 723 q 317 719 261 723 q 393 715 375 715 l 735 0 q 577 -8 669 -1 l 577 4 q 629 60 629 13 q 595 164 629 94 m 573 985 l 408 782 l 359 782 l 465 985 l 573 985 z "},"Ë":{"ha":738,"x_min":50,"x_max":702,"o":"m 172 715 l 195 715 l 195 0 l 150 0 q 50 -8 126 0 l 50 4 q 105 39 86 14 q 132 98 125 64 q 139 247 139 133 l 139 531 q 113 666 139 629 q 50 711 86 703 l 50 723 q 172 715 91 720 m 515 0 l 243 0 l 243 715 l 441 715 q 651 723 496 715 q 650 692 650 703 q 653 629 650 679 q 655 593 655 596 l 655 576 l 644 576 q 588 652 619 635 q 471 668 557 668 l 363 668 q 315 665 337 668 q 301 555 303 642 l 300 509 l 300 398 l 446 398 q 556 412 529 398 q 600 480 583 427 l 614 480 q 609 374 609 419 q 613 300 609 346 q 616 246 614 286 l 602 246 q 566 328 595 306 q 470 351 535 351 l 300 351 l 300 203 q 309 53 300 117 q 370 49 338 49 l 473 49 q 600 68 557 49 q 688 155 645 87 l 702 155 q 680 83 694 124 q 653 -8 661 31 q 515 0 576 0 m 494 945 l 575 864 l 494 781 l 412 864 l 494 945 m 235 947 l 319 864 l 235 783 l 153 864 l 235 947 z "},"È":{"ha":738,"x_min":50,"x_max":702,"o":"m 172 715 l 195 715 l 195 0 l 150 0 q 50 -8 126 0 l 50 4 q 105 39 86 14 q 132 98 125 64 q 139 247 139 133 l 139 531 q 113 666 139 629 q 50 711 86 703 l 50 723 q 172 715 91 720 m 515 0 l 243 0 l 243 715 l 441 715 q 651 723 496 715 q 650 692 650 703 q 653 629 650 679 q 655 593 655 596 l 655 576 l 644 576 q 588 652 619 635 q 471 668 557 668 l 363 668 q 315 665 337 668 q 301 555 303 642 l 300 509 l 300 398 l 446 398 q 556 412 529 398 q 600 480 583 427 l 614 480 q 609 374 609 419 q 613 300 609 346 q 616 246 614 286 l 602 246 q 566 328 595 306 q 470 351 535 351 l 300 351 l 300 203 q 309 53 300 117 q 370 49 338 49 l 473 49 q 600 68 557 49 q 688 155 645 87 l 702 155 q 680 83 694 124 q 653 -8 661 31 q 515 0 576 0 m 481 782 l 433 782 l 267 985 l 376 985 l 481 782 z "},"Í":{"ha":477,"x_min":64,"x_max":413,"o":"m 264 0 l 264 715 q 413 723 348 715 l 413 711 q 347 667 373 703 q 319 513 319 630 l 319 190 q 348 50 319 85 q 413 4 376 14 l 413 -8 q 264 0 349 0 m 213 715 l 213 0 q 64 -8 164 0 l 64 4 q 137 63 117 18 q 157 225 157 108 l 157 528 q 136 658 157 616 q 64 711 115 699 l 64 723 q 213 715 147 716 m 357 985 l 192 782 l 144 782 l 249 985 l 357 985 z "},"Î":{"ha":477,"x_min":37,"x_max":443,"o":"m 264 0 l 264 715 q 413 723 348 715 l 413 711 q 347 667 373 703 q 319 513 319 630 l 319 190 q 348 50 319 85 q 413 4 376 14 l 413 -8 q 264 0 349 0 m 213 715 l 213 0 q 64 -8 164 0 l 64 4 q 137 63 117 18 q 157 225 157 108 l 157 528 q 136 658 157 616 q 64 711 115 699 l 64 723 q 213 715 147 716 m 239 920 l 85 782 l 37 782 l 201 985 l 280 985 l 443 782 l 395 782 l 239 920 z "},"Ï":{"ha":477,"x_min":22,"x_max":444,"o":"m 264 0 l 264 715 q 413 723 348 715 l 413 711 q 347 667 373 703 q 319 513 319 630 l 319 190 q 348 50 319 85 q 413 4 376 14 l 413 -8 q 264 0 349 0 m 213 715 l 213 0 q 64 -8 164 0 l 64 4 q 137 63 117 18 q 157 225 157 108 l 157 528 q 136 658 157 616 q 64 711 115 699 l 64 723 q 213 715 147 716 m 363 945 l 444 864 l 363 781 l 281 864 l 363 945 m 104 947 l 188 864 l 104 783 l 22 864 l 104 947 z "},"Ì":{"ha":477,"x_min":64,"x_max":413,"o":"m 264 0 l 264 715 q 413 723 348 715 l 413 711 q 347 667 373 703 q 319 513 319 630 l 319 190 q 348 50 319 85 q 413 4 376 14 l 413 -8 q 264 0 349 0 m 213 715 l 213 0 q 64 -8 164 0 l 64 4 q 137 63 117 18 q 157 225 157 108 l 157 528 q 136 658 157 616 q 64 711 115 699 l 64 723 q 213 715 147 716 m 334 782 l 286 782 l 120 985 l 229 985 l 334 782 z "},"Ó":{"ha":897,"x_min":35,"x_max":862,"o":"m 722 70 q 795 372 795 170 q 722 650 795 551 q 862 365 862 567 q 722 70 862 165 m 175 651 q 100 356 100 536 q 172 74 100 193 q 35 363 35 164 q 175 651 35 567 m 682 360 q 446 685 682 685 q 215 352 215 685 q 449 39 215 39 q 682 360 682 39 m 746 361 q 708 150 746 236 q 603 24 671 64 q 448 -18 536 -18 q 229 83 307 -18 q 152 361 152 184 q 231 644 152 545 q 446 741 309 741 q 666 644 585 741 q 746 361 746 547 m 567 985 l 401 782 l 353 782 l 458 985 l 567 985 z "},"Ô":{"ha":897,"x_min":35,"x_max":862,"o":"m 722 70 q 795 372 795 170 q 722 650 795 551 q 862 365 862 567 q 722 70 862 165 m 175 651 q 100 356 100 536 q 172 74 100 193 q 35 363 35 164 q 175 651 35 567 m 682 360 q 446 685 682 685 q 215 352 215 685 q 449 39 215 39 q 682 360 682 39 m 746 361 q 708 150 746 236 q 603 24 671 64 q 448 -18 536 -18 q 229 83 307 -18 q 152 361 152 184 q 231 644 152 545 q 446 741 309 741 q 666 644 585 741 q 746 361 746 547 m 449 920 l 295 782 l 247 782 l 410 985 l 490 985 l 652 782 l 604 782 l 449 920 z "},"Ò":{"ha":897,"x_min":35,"x_max":862,"o":"m 722 70 q 795 372 795 170 q 722 650 795 551 q 862 365 862 567 q 722 70 862 165 m 175 651 q 100 356 100 536 q 172 74 100 193 q 35 363 35 164 q 175 651 35 567 m 682 360 q 446 685 682 685 q 215 352 215 685 q 449 39 215 39 q 682 360 682 39 m 746 361 q 708 150 746 236 q 603 24 671 64 q 448 -18 536 -18 q 229 83 307 -18 q 152 361 152 184 q 231 644 152 545 q 446 741 309 741 q 666 644 585 741 q 746 361 746 547 m 519 782 l 471 782 l 305 985 l 414 985 l 519 782 z "},"Ú":{"ha":984,"x_min":33,"x_max":946,"o":"m 743 715 l 743 0 l 680 0 q 687 66 686 22 q 451 -8 574 -8 q 324 24 378 -8 q 251 106 270 56 q 231 249 231 157 l 231 715 q 389 723 302 715 l 389 711 q 328 682 351 705 q 297 627 304 657 q 289 530 289 596 l 288 516 l 288 257 q 301 132 288 171 q 357 66 313 92 q 466 39 401 39 q 687 116 570 39 l 687 512 q 680 624 687 589 q 650 680 673 657 q 593 711 629 701 l 593 723 q 612 722 597 723 q 644 720 627 722 q 743 715 699 716 m 33 723 l 184 715 l 184 244 q 198 97 184 139 q 260 14 212 54 q 183 45 217 20 q 138 104 149 70 q 127 215 127 138 l 127 539 q 104 661 127 622 q 33 711 82 701 l 33 723 m 831 0 l 792 0 l 792 715 q 869 718 843 716 l 946 723 l 946 711 q 886 679 911 705 q 855 616 863 654 q 848 484 848 582 l 848 186 q 946 4 848 18 l 946 -8 q 831 0 857 0 m 635 985 l 470 782 l 422 782 l 527 985 l 635 985 z "},"Û":{"ha":984,"x_min":33,"x_max":946,"o":"m 743 715 l 743 0 l 680 0 q 687 66 686 22 q 451 -8 574 -8 q 324 24 378 -8 q 251 106 270 56 q 231 249 231 157 l 231 715 q 389 723 302 715 l 389 711 q 328 682 351 705 q 297 627 304 657 q 289 530 289 596 l 288 516 l 288 257 q 301 132 288 171 q 357 66 313 92 q 466 39 401 39 q 687 116 570 39 l 687 512 q 680 624 687 589 q 650 680 673 657 q 593 711 629 701 l 593 723 q 612 722 597 723 q 644 720 627 722 q 743 715 699 716 m 33 723 l 184 715 l 184 244 q 198 97 184 139 q 260 14 212 54 q 183 45 217 20 q 138 104 149 70 q 127 215 127 138 l 127 539 q 104 661 127 622 q 33 711 82 701 l 33 723 m 831 0 l 792 0 l 792 715 q 869 718 843 716 l 946 723 l 946 711 q 886 679 911 705 q 855 616 863 654 q 848 484 848 582 l 848 186 q 946 4 848 18 l 946 -8 q 831 0 857 0 m 493 920 l 339 782 l 291 782 l 454 985 l 534 985 l 696 782 l 648 782 l 493 920 z "},"Ù":{"ha":984,"x_min":33,"x_max":946,"o":"m 743 715 l 743 0 l 680 0 q 687 66 686 22 q 451 -8 574 -8 q 324 24 378 -8 q 251 106 270 56 q 231 249 231 157 l 231 715 q 389 723 302 715 l 389 711 q 328 682 351 705 q 297 627 304 657 q 289 530 289 596 l 288 516 l 288 257 q 301 132 288 171 q 357 66 313 92 q 466 39 401 39 q 687 116 570 39 l 687 512 q 680 624 687 589 q 650 680 673 657 q 593 711 629 701 l 593 723 q 612 722 597 723 q 644 720 627 722 q 743 715 699 716 m 33 723 l 184 715 l 184 244 q 198 97 184 139 q 260 14 212 54 q 183 45 217 20 q 138 104 149 70 q 127 215 127 138 l 127 539 q 104 661 127 622 q 33 711 82 701 l 33 723 m 831 0 l 792 0 l 792 715 q 869 718 843 716 l 946 723 l 946 711 q 886 679 911 705 q 855 616 863 654 q 848 484 848 582 l 848 186 q 946 4 848 18 l 946 -8 q 831 0 857 0 m 562 782 l 515 782 l 349 985 l 457 985 l 562 782 z "},"ı":{"ha":391,"x_min":102,"x_max":380,"o":"m 198 157 l 198 484 l 249 484 l 249 147 q 336 24 249 24 q 380 35 361 24 l 380 20 q 304 -9 347 -9 q 241 14 267 -9 q 206 66 213 38 q 198 157 198 95 m 102 169 l 102 484 l 153 484 l 153 145 q 168 39 153 71 q 216 -9 182 5 l 195 -9 q 125 48 149 12 q 102 169 102 84 z "},"ˆ":{"ha":463,"x_min":30,"x_max":435,"o":"m 232 713 l 78 576 l 30 576 l 193 779 l 273 779 l 435 576 l 387 576 l 232 713 z "},"˜":{"ha":463,"x_min":8,"x_max":467,"o":"m 434 731 l 467 731 q 330 610 429 610 q 195 652 294 610 q 125 670 152 670 q 40 610 66 670 l 8 610 q 142 732 44 732 q 294 685 178 732 q 350 671 328 671 q 434 731 412 671 z "},"ˉ":{"ha":463,"x_min":39,"x_max":411,"o":"m 411 623 l 39 623 l 39 692 l 411 692 l 411 623 z "},"˘":{"ha":463,"x_min":37,"x_max":430,"o":"m 37 782 l 85 782 q 130 697 89 734 q 233 660 172 660 q 337 696 300 660 q 382 782 374 733 l 430 782 q 372 659 424 709 q 229 608 319 608 q 98 655 151 608 q 37 782 45 702 z "},"˙":{"ha":463,"x_min":149,"x_max":315,"o":"m 231 743 l 315 660 l 231 578 l 149 660 l 231 743 z "},"˚":{"ha":463,"x_min":123,"x_max":342,"o":"m 233 747 q 191 730 208 747 q 174 688 174 712 q 191 646 174 664 q 233 629 209 629 q 275 646 257 629 q 292 688 292 663 q 274 730 292 712 q 233 747 257 747 m 233 799 q 310 768 277 799 q 342 689 342 736 q 311 612 342 644 q 233 579 278 579 q 155 612 187 579 q 123 689 123 644 q 155 768 123 736 q 233 799 187 799 z "},"¸":{"ha":463,"x_min":132,"x_max":332,"o":"m 211 -11 l 269 -11 l 224 -76 q 302 -115 273 -82 q 332 -189 332 -148 q 284 -280 332 -239 q 132 -327 237 -321 l 132 -290 q 261 -201 261 -280 q 132 -123 261 -123 l 211 -11 z "},"˝":{"ha":463,"x_min":79,"x_max":457,"o":"m 457 779 l 291 576 l 243 576 l 348 779 l 457 779 m 293 779 l 127 576 l 79 576 l 184 779 l 293 779 z "},"˛":{"ha":463,"x_min":131,"x_max":332,"o":"m 163 12 l 216 12 q 196 -117 196 -73 q 332 -237 196 -237 l 332 -270 q 294 -271 304 -271 q 172 -231 212 -271 q 131 -130 131 -191 q 163 12 131 -61 z "},"ˇ":{"ha":463,"x_min":30,"x_max":435,"o":"m 233 642 l 388 779 l 435 779 l 272 576 l 193 576 l 30 779 l 79 779 l 233 642 z "},"Š":{"ha":622,"x_min":37,"x_max":585,"o":"m 67 235 l 83 235 q 153 92 87 149 q 299 37 216 37 q 403 73 363 37 q 443 159 443 109 q 404 241 443 212 q 257 305 367 269 q 132 353 169 334 q 64 414 88 376 q 37 500 37 452 q 73 606 37 554 q 65 559 65 579 q 90 467 65 507 q 154 404 116 425 q 281 355 192 382 q 448 277 397 319 q 498 165 498 235 q 446 41 498 97 q 290 -15 394 -15 q 174 1 248 -15 q 76 15 109 14 l 71 20 q 72 50 72 32 q 68 117 72 72 q 64 185 64 163 q 67 235 64 214 m 546 519 l 532 519 q 469 635 531 597 q 323 673 409 673 q 210 644 254 673 q 165 574 165 614 q 201 505 165 530 q 345 441 237 478 q 486 385 446 406 q 557 317 528 361 q 585 216 585 271 q 523 83 585 131 q 546 172 546 115 q 521 269 546 227 q 456 336 494 311 q 328 391 416 362 q 153 467 194 435 q 113 566 113 498 q 175 687 113 643 q 352 730 237 730 q 543 703 430 730 l 543 698 l 544 672 q 545 623 544 652 q 547 562 547 589 q 546 519 547 545 m 313 848 l 468 985 l 515 985 l 352 782 l 273 782 l 110 985 l 159 985 l 313 848 z "},"š":{"ha":507,"x_min":35,"x_max":469,"o":"m 58 180 l 68 180 q 136 75 89 117 q 237 33 183 33 q 311 55 280 33 q 341 106 341 77 q 311 156 341 137 q 197 192 279 175 q 75 244 115 210 q 35 330 35 278 q 62 405 35 370 q 59 374 59 388 q 79 310 59 340 q 133 267 98 281 q 247 232 167 252 q 357 187 323 214 q 391 111 391 161 q 349 24 391 58 q 226 -9 307 -9 q 62 25 155 -9 q 59 98 62 77 q 57 142 57 119 q 58 180 57 155 m 446 328 l 436 328 q 360 422 412 390 q 256 453 309 453 q 182 437 214 453 q 151 389 151 420 q 174 352 151 365 q 260 326 196 340 q 430 255 391 298 q 469 163 469 212 q 431 71 469 122 q 436 113 436 96 q 401 209 436 165 q 239 281 366 252 q 134 321 163 299 q 104 387 104 343 q 149 465 104 435 q 277 494 192 494 q 442 461 357 494 q 441 443 441 445 q 444 390 441 418 q 446 328 446 366 m 256 642 l 410 779 l 458 779 l 294 576 l 215 576 l 52 779 l 101 779 l 256 642 z "},"¦":{"ha":694,"x_min":317,"x_max":378,"o":"m 317 -463 l 317 26 l 378 26 l 378 -463 l 317 -463 m 317 338 l 317 827 l 378 827 l 378 338 l 317 338 z "},"Ð":{"ha":926,"x_min":41,"x_max":879,"o":"m 703 53 q 815 351 815 139 q 724 644 815 559 q 879 353 879 540 q 836 181 879 252 q 703 53 793 111 m 99 405 l 136 405 l 136 531 q 115 656 136 617 q 41 711 93 694 l 41 723 q 193 715 130 716 l 193 0 q 41 -8 144 0 l 41 4 q 115 65 94 18 q 136 251 136 110 l 136 360 l 41 360 l 41 411 q 78 406 54 408 l 99 405 m 437 360 l 298 360 l 298 273 q 317 56 298 121 q 436 39 369 39 q 640 127 574 39 q 706 354 706 214 q 634 590 706 506 q 422 674 562 674 q 308 652 350 674 q 298 438 298 621 l 298 405 l 531 405 l 531 353 q 437 360 492 360 m 282 0 l 241 0 l 241 715 q 372 720 334 717 q 449 723 428 723 q 631 671 557 723 q 734 542 704 618 q 765 361 765 466 q 676 83 765 174 q 449 -8 587 -8 q 296 -1 382 -8 q 282 0 292 0 z "},"ð":{"ha":694,"x_min":41,"x_max":655,"o":"m 157 35 q 41 243 41 100 q 161 451 41 394 q 96 241 96 389 q 157 35 96 107 m 437 753 l 553 802 l 579 762 l 477 720 q 607 535 559 647 q 655 308 655 422 q 533 42 655 109 q 602 276 602 113 q 532 573 602 425 q 374 789 462 722 q 437 753 398 780 m 199 237 q 343 35 199 35 q 492 250 492 35 q 346 456 492 456 q 199 237 199 456 m 372 675 l 216 611 l 189 649 l 342 714 q 238 799 311 755 l 258 831 q 470 603 385 762 q 555 273 555 443 q 498 60 555 130 q 345 -12 443 -12 q 198 52 254 -12 q 142 235 142 116 q 195 433 142 368 q 340 498 250 498 q 471 448 415 498 q 372 675 443 568 z "},"Ý":{"ha":969,"x_min":3,"x_max":966,"o":"m 147 715 l 499 342 l 499 0 l 483 0 q 347 -8 424 0 l 347 4 q 417 49 391 14 q 442 178 442 82 l 442 326 l 227 554 q 3 711 103 684 l 3 723 q 125 715 60 715 l 147 715 m 551 0 l 551 361 l 212 715 l 231 715 q 398 723 312 715 l 398 711 q 358 673 358 699 q 439 553 358 637 l 583 403 l 717 559 q 762 653 762 612 q 715 711 762 700 l 715 723 q 798 718 731 723 q 846 715 825 715 q 966 723 858 715 l 966 711 q 883 669 915 696 q 813 595 852 643 q 804 583 811 591 l 606 353 l 606 180 q 704 4 606 24 l 704 -8 q 576 0 580 0 l 551 0 m 628 985 l 463 782 l 414 782 l 519 985 l 628 985 z "},"ý":{"ha":781,"x_min":17,"x_max":764,"o":"m 448 -258 l 448 -271 l 235 -314 l 397 0 l 167 355 q 17 479 94 467 l 17 491 q 140 479 60 486 l 452 0 l 381 -138 q 359 -209 359 -182 q 382 -246 359 -233 q 429 -260 406 -260 q 448 -258 431 -260 m 625 334 l 477 50 l 196 479 q 349 491 300 485 l 349 479 q 299 431 299 465 q 328 363 299 409 l 471 144 l 566 328 q 598 418 598 392 q 532 479 598 462 l 532 491 q 571 488 529 491 q 658 484 626 484 q 764 491 703 484 l 764 479 q 625 334 684 448 m 534 779 l 368 576 l 320 576 l 425 779 l 534 779 z "},"Þ":{"ha":781,"x_min":41,"x_max":741,"o":"m 604 168 q 678 349 678 243 q 604 543 678 460 q 741 355 741 488 q 604 168 741 225 m 297 357 l 297 209 q 394 189 354 189 q 526 237 482 189 q 569 357 569 286 q 527 479 569 429 q 393 528 484 528 q 324 517 340 528 q 303 472 308 505 q 297 357 297 439 m 242 0 l 242 715 q 392 723 340 717 l 392 711 q 297 566 298 689 q 385 574 347 574 q 574 509 519 574 q 629 353 629 443 q 566 197 629 256 q 414 140 504 140 q 297 159 356 140 q 402 4 300 16 l 402 -8 q 242 0 345 0 m 193 715 l 193 0 q 41 -8 135 0 l 41 4 q 97 33 74 10 q 128 88 120 56 q 136 191 136 120 l 136 524 q 116 657 136 616 q 41 711 94 698 l 41 723 q 193 715 125 715 z "},"þ":{"ha":752,"x_min":27,"x_max":713,"o":"m 597 40 l 593 47 q 657 245 657 114 q 593 446 657 364 l 597 450 q 713 246 713 374 q 682 127 713 185 q 597 40 652 68 m 260 385 l 260 66 q 378 33 310 33 q 504 85 452 33 q 555 241 555 138 q 510 396 555 340 q 399 451 465 451 q 260 385 321 451 m 208 -417 l 208 820 q 263 823 244 821 q 260 749 260 808 l 260 659 l 260 444 q 398 494 328 494 q 556 420 500 494 q 612 241 612 347 q 551 62 612 137 q 384 -14 490 -14 q 260 16 325 -14 l 260 -258 q 268 -347 260 -321 q 304 -393 276 -373 q 382 -414 332 -412 l 382 -425 l 364 -425 q 308 -422 350 -425 q 208 -417 260 -418 m 165 820 l 165 -417 l 109 -421 q 113 -207 113 -321 l 113 659 q 108 745 113 718 q 81 789 103 769 q 27 816 60 810 l 27 827 q 93 823 52 827 q 165 820 135 820 z "},"×":{"ha":926,"x_min":134,"x_max":794,"o":"m 421 248 l 134 537 l 175 580 l 464 290 l 753 580 l 794 537 l 506 248 l 791 -38 l 749 -80 l 464 206 l 176 -80 l 134 -38 l 421 248 z "},"¹":{"ha":391,"x_min":51,"x_max":349,"o":"m 175 800 l 175 401 l 152 401 q 83 397 129 401 l 51 394 l 51 409 q 112 439 96 414 q 128 520 128 465 l 128 671 q 113 747 128 728 q 51 768 98 766 l 51 781 q 175 800 106 786 m 268 833 l 268 525 q 285 441 268 467 q 349 409 302 415 l 349 394 q 335 395 340 395 q 298 399 329 396 l 251 401 l 220 401 l 220 816 q 268 833 246 825 z "},"²":{"ha":391,"x_min":17,"x_max":370,"o":"m 311 452 l 292 402 l 17 402 l 60 452 l 311 452 m 277 812 q 345 781 320 807 q 370 715 370 753 q 346 646 370 674 q 288 607 322 618 q 320 709 320 657 q 277 812 320 765 m 366 583 l 332 500 l 102 500 l 134 538 q 210 637 197 610 q 223 691 223 666 q 200 750 223 728 q 143 772 176 772 q 82 743 110 772 q 55 673 55 715 q 56 650 55 670 l 35 645 q 30 681 30 662 q 68 785 30 747 q 156 822 105 822 q 242 787 209 822 q 276 700 276 751 q 196 549 276 635 l 280 549 q 350 583 338 549 l 366 583 z "},"³":{"ha":391,"x_min":43,"x_max":360,"o":"m 276 617 q 360 517 360 592 q 334 448 360 479 q 262 407 309 415 q 309 520 309 453 q 276 617 309 576 m 58 633 l 76 719 l 253 719 l 194 624 q 264 519 264 597 q 230 430 264 466 q 149 395 195 395 q 43 500 64 395 l 64 500 q 141 439 87 439 q 197 463 174 439 q 219 518 219 487 q 195 575 219 553 q 129 597 171 596 l 172 668 l 125 668 q 73 633 80 668 l 58 633 m 87 766 l 96 817 l 317 817 l 285 766 l 87 766 z "},"½":{"ha":955,"x_min":50,"x_max":936,"o":"m 878 50 l 857 0 l 583 0 l 626 50 l 878 50 m 842 411 q 910 379 884 406 q 936 313 936 351 q 911 244 936 272 q 853 205 886 216 q 886 308 886 255 q 842 411 886 366 m 932 182 l 898 98 l 669 98 l 700 136 q 775 236 762 209 q 789 289 789 263 q 766 349 789 328 q 709 370 743 370 q 648 341 676 370 q 621 271 621 312 q 622 248 621 268 l 600 243 q 596 279 596 262 q 633 382 596 344 q 722 420 670 420 q 808 385 774 420 q 842 298 842 349 q 762 147 842 235 l 846 147 q 916 182 904 147 l 932 182 m 174 800 l 174 401 l 151 401 q 81 397 127 401 l 50 394 l 50 409 q 111 439 94 414 q 127 520 127 465 l 127 671 q 112 747 127 728 q 50 768 97 766 l 50 781 q 174 800 105 786 m 233 -28 l 154 -28 q 193 14 178 -5 q 216 42 216 42 q 222 50 220 47 l 727 761 q 755 804 743 785 l 770 827 l 850 827 q 768 728 819 797 l 761 720 l 294 54 q 286 45 294 54 q 233 -28 271 28 m 267 833 l 267 525 q 283 441 267 467 q 347 409 301 415 l 347 394 q 333 395 339 395 q 296 399 328 396 l 250 401 l 219 401 l 219 816 q 267 833 245 825 z "},"¼":{"ha":955,"x_min":50,"x_max":944,"o":"m 644 166 l 730 166 l 730 256 l 644 166 m 573 155 l 778 361 l 778 112 q 762 24 778 54 q 690 -23 745 -6 l 683 -1 q 720 28 709 10 q 730 89 730 47 l 730 119 l 573 119 l 573 155 m 822 406 l 869 454 l 869 166 q 909 174 901 166 q 930 202 918 181 l 944 202 q 899 119 929 146 l 869 119 q 807 35 868 50 q 822 119 822 52 l 822 406 m 174 800 l 174 401 l 151 401 q 81 397 127 401 l 50 394 l 50 409 q 111 439 94 414 q 127 520 127 465 l 127 671 q 112 747 127 728 q 50 768 97 766 l 50 781 q 174 800 105 786 m 250 -28 l 171 -28 q 209 14 191 -8 q 232 42 232 42 q 239 50 237 47 l 743 761 q 772 804 760 785 l 787 827 l 866 827 q 784 728 836 797 l 777 720 l 310 54 q 302 45 310 54 q 250 -28 288 28 m 267 833 l 267 525 q 283 441 267 467 q 347 409 301 415 l 347 394 q 333 395 339 395 q 296 399 328 396 l 250 401 l 219 401 l 219 816 q 267 833 245 825 z "},"¾":{"ha":955,"x_min":41,"x_max":944,"o":"m 644 166 l 730 166 l 730 256 l 644 166 m 573 155 l 778 361 l 778 112 q 762 24 778 54 q 690 -23 745 -6 l 683 -1 q 720 28 709 10 q 730 89 730 47 l 730 119 l 573 119 l 573 155 m 822 406 l 869 454 l 869 166 q 905 172 895 166 q 930 202 916 178 l 944 202 q 899 119 929 146 l 869 119 q 807 35 868 50 q 822 119 822 52 l 822 406 m 275 617 q 359 517 359 592 q 333 448 359 479 q 261 407 308 415 q 307 520 307 453 q 275 617 307 576 m 57 633 l 75 719 l 252 719 l 193 624 q 263 519 263 597 q 229 430 263 466 q 147 395 194 395 q 41 500 63 395 l 63 500 q 140 439 85 439 q 195 463 173 439 q 218 518 218 487 q 194 575 218 553 q 127 597 170 596 l 171 668 l 124 668 q 72 633 79 668 l 57 633 m 85 766 l 95 817 l 316 817 l 283 766 l 85 766 m 241 -28 l 163 -28 q 201 14 183 -8 q 224 42 224 42 q 231 50 229 47 l 735 761 q 764 804 751 785 l 779 827 l 858 827 q 776 728 827 797 l 769 720 l 302 54 q 294 45 302 54 q 241 -28 279 28 z "},"¯":{"ha":694,"x_min":-8,"x_max":703,"o":"m -8 819 l -8 888 l 703 888 l 703 819 l -8 819 z "},"¤":{"ha":941,"x_min":144,"x_max":781,"o":"m 654 678 l 739 763 l 781 720 l 696 636 q 764 445 764 549 q 750 353 764 396 q 696 254 737 309 l 781 170 l 739 128 l 654 212 q 463 144 566 144 q 272 212 364 144 l 186 128 l 144 170 l 230 254 q 161 445 161 340 q 229 636 161 549 l 144 720 l 186 763 l 271 679 q 463 746 359 746 q 654 678 566 746 m 703 445 q 633 615 703 545 q 463 686 562 686 q 293 615 363 686 q 222 445 222 544 q 292 275 222 345 q 463 204 363 204 q 632 275 562 204 q 703 445 703 346 z "}}}
